<svg xmlns="http://www.w3.org/2000/svg" xmlns:xlink="http://www.w3.org/1999/xlink" viewBox="0 0 633.43 523.24"><defs><style>.cls-1{isolation:isolate;}.cls-2{fill:url(#Безымянный_градиент_263);}.cls-3{fill:url(#Безымянный_градиент_170);}.cls-4{fill:#fff;}.cls-5{fill:url(#Безымянный_градиент_271);}.cls-6{fill:url(#Безымянный_градиент_84);}.cls-7{fill:url(#Безымянный_градиент_3);}.cls-8{fill:url(#Безымянный_градиент_123);}.cls-9{fill:url(#Безымянный_градиент_39);}.cls-10{fill:url(#Безымянный_градиент_73);}.cls-11{fill:url(#Безымянный_градиент_139);}.cls-12{fill:url(#Безымянный_градиент_39-2);}.cls-13{fill:url(#Безымянный_градиент_271-2);}.cls-14{fill:url(#Безымянный_градиент_39-3);}.cls-15,.cls-26,.cls-27,.cls-28,.cls-29,.cls-30,.cls-31,.cls-32,.cls-35,.cls-48,.cls-50,.cls-51,.cls-58,.cls-59,.cls-66,.cls-85{fill:none;stroke-miterlimit:10;}.cls-15{stroke:url(#Безымянный_градиент_45);}.cls-16{fill:url(#Безымянный_градиент_39-4);}.cls-17{fill:url(#Безымянный_градиент_139-2);}.cls-18{fill:url(#Безымянный_градиент_123-2);}.cls-19{fill:url(#Безымянный_градиент_48);}.cls-20{fill:url(#Безымянный_градиент_123-3);}.cls-21{fill:url(#Безымянный_градиент_39-5);}.cls-22{fill:url(#Безымянный_градиент_39-6);}.cls-23{fill:url(#Безымянный_градиент_39-7);}.cls-24{fill:url(#Безымянный_градиент_39-8);}.cls-25{fill:url(#Безымянный_градиент_39-9);}.cls-26,.cls-27,.cls-28,.cls-29,.cls-30{stroke-width:2px;}.cls-26{stroke:url(#Безымянный_градиент_39-10);}.cls-27{stroke:url(#Безымянный_градиент_39-11);}.cls-28{stroke:url(#Безымянный_градиент_39-12);}.cls-29{stroke:url(#Безымянный_градиент_39-13);}.cls-30{stroke:url(#Безымянный_градиент_39-14);}.cls-31{stroke:url(#Безымянный_градиент_139-3);}.cls-32{stroke:#1f1844;}.cls-33{fill:url(#Безымянный_градиент_139-4);}.cls-34{fill:url(#Безымянный_градиент_39-15);}.cls-35{stroke:url(#Безымянный_градиент_39-16);}.cls-36{fill:#1f1844;}.cls-37{fill:url(#Безымянный_градиент_44);}.cls-38{fill:#bfc3db;}.cls-38,.cls-39{opacity:0.5;mix-blend-mode:multiply;}.cls-39{fill:#bbbfd9;}.cls-40{fill:url(#Безымянный_градиент_271-3);}.cls-41{fill:url(#Безымянный_градиент_48-2);}.cls-42{fill:url(#Безымянный_градиент_43);}.cls-43{fill:url(#Безымянный_градиент_271-4);}.cls-44{fill:url(#Безымянный_градиент_123-4);}.cls-45{fill:url(#Безымянный_градиент_87);}.cls-46{fill:url(#Безымянный_градиент_123-5);}.cls-47{fill:url(#Безымянный_градиент_123-6);}.cls-48,.cls-58,.cls-59{stroke:#fff;}.cls-49{fill:url(#Безымянный_градиент_39-17);}.cls-50{stroke:url(#Безымянный_градиент_139-5);}.cls-51{stroke:url(#Безымянный_градиент_39-18);}.cls-52{fill:#c8cce0;}.cls-53{fill:url(#Безымянный_градиент_41);}.cls-54{fill:#f63e02;}.cls-55{fill:url(#Безымянный_градиент_133);}.cls-56{fill:url(#Безымянный_градиент_130);}.cls-57{fill:url(#Безымянный_градиент_139-6);}.cls-58{stroke-width:0.68px;}.cls-59{stroke-width:0.65px;}.cls-60{fill:url(#Безымянный_градиент_5);}.cls-61{fill:url(#Безымянный_градиент_5-2);}.cls-62{fill:url(#Безымянный_градиент_33);}.cls-63{fill:url(#Безымянный_градиент_33-2);}.cls-64{fill:url(#Безымянный_градиент_33-3);}.cls-65{fill:url(#Безымянный_градиент_33-4);}.cls-66{stroke-width:0.98px;stroke:url(#Безымянный_градиент_33-5);}.cls-67{fill:url(#Безымянный_градиент_33-6);}.cls-68{fill:url(#Безымянный_градиент_33-7);}.cls-69{fill:url(#Безымянный_градиент_11);}.cls-70{fill:url(#Безымянный_градиент_123-7);}.cls-71{fill:url(#Безымянный_градиент_138);}.cls-72{fill:url(#Безымянный_градиент_269);}.cls-73{fill:url(#Безымянный_градиент_16);}.cls-74{fill:#572500;}.cls-75{fill:url(#Безымянный_градиент_250);}.cls-76{fill:url(#Безымянный_градиент_123-8);}.cls-77{fill:url(#Безымянный_градиент_48-3);}.cls-78{fill:url(#Безымянный_градиент_123-9);}.cls-79{fill:url(#Безымянный_градиент_139-7);}.cls-80{fill:url(#Безымянный_градиент_77);}.cls-81{fill:url(#Безымянный_градиент_86);}.cls-82{fill:url(#Безымянный_градиент_83);}.cls-83{fill:#2d2e64;}.cls-84{fill:url(#Безымянный_градиент_139-8);}.cls-85{stroke-width:4.15px;stroke:url(#Безымянный_градиент_139-9);}.cls-86{fill:url(#Безымянный_градиент_139-10);}</style><linearGradient id="Безымянный_градиент_263" y1="236.31" x2="626.51" y2="236.31" gradientUnits="userSpaceOnUse"><stop offset="0" stop-color="#f0f2f5"/><stop offset="0.99" stop-color="#f5f7f8"/></linearGradient><linearGradient id="Безымянный_градиент_170" x1="2.14" y1="150.38" x2="306.88" y2="150.38" gradientUnits="userSpaceOnUse"><stop offset="0.01" stop-color="#bbbfd9"/><stop offset="1" stop-color="#d6dbf8"/></linearGradient><linearGradient id="Безымянный_градиент_271" x1="611.99" y1="334.17" x2="484.49" y2="277.17" gradientUnits="userSpaceOnUse"><stop offset="0.01" stop-color="#bbbfd9"/><stop offset="0.29" stop-color="#cacde2"/><stop offset="0.84" stop-color="#f2f3f8"/><stop offset="1" stop-color="#fff"/></linearGradient><linearGradient id="Безымянный_градиент_84" x1="477.57" y1="323.75" x2="451.75" y2="308.06" gradientUnits="userSpaceOnUse"><stop offset="0.32" stop-color="#9c9c9c"/><stop offset="0.5" stop-color="#ababab"/><stop offset="0.86" stop-color="#d3d3d3"/><stop offset="0.91" stop-color="#d9d9d9"/></linearGradient><linearGradient id="Безымянный_градиент_3" x1="456.2" y1="328.19" x2="582.3" y2="328.19" gradientUnits="userSpaceOnUse"><stop offset="0.09" stop-color="#d9d9d9"/><stop offset="0.12" stop-color="#d6d6d6"/><stop offset="0.7" stop-color="#aeaeae"/><stop offset="1" stop-color="#9f9f9f"/></linearGradient><linearGradient id="Безымянный_градиент_123" x1="279.56" y1="293.99" x2="298.23" y2="293.99" gradientUnits="userSpaceOnUse"><stop offset="0" stop-color="#753200"/><stop offset="1" stop-color="#a04400"/></linearGradient><linearGradient id="Безымянный_градиент_39" x1="345.94" y1="321.27" x2="342.81" y2="293.71" gradientUnits="userSpaceOnUse"><stop offset="0" stop-color="#464b8b"/><stop offset="0.28" stop-color="#393c76"/><stop offset="0.74" stop-color="#27275a"/><stop offset="1" stop-color="#201f4f"/></linearGradient><linearGradient id="Безымянный_градиент_73" x1="322.71" y1="206.27" x2="373.18" y2="206.27" gradientUnits="userSpaceOnUse"><stop offset="0.09" stop-color="#e6e6e6"/><stop offset="1" stop-color="#dedede"/></linearGradient><linearGradient id="Безымянный_градиент_139" x1="251.98" y1="212.33" x2="333.41" y2="212.33" gradientUnits="userSpaceOnUse"><stop offset="0" stop-color="#201f4f"/><stop offset="0.26" stop-color="#27275a"/><stop offset="0.72" stop-color="#393c76"/><stop offset="1" stop-color="#464b8b"/></linearGradient><linearGradient id="Безымянный_градиент_39-2" x1="359.49" y1="212.21" x2="485.73" y2="212.21" xlink:href="#Безымянный_градиент_39"/><linearGradient id="Безымянный_градиент_271-2" x1="74.06" y1="306.12" x2="187.56" y2="266.12" xlink:href="#Безымянный_градиент_271"/><linearGradient id="Безымянный_градиент_39-3" x1="320.56" y1="153.89" x2="319.44" y2="131.26" xlink:href="#Безымянный_градиент_39"/><linearGradient id="Безымянный_градиент_45" x1="373.61" y1="301" x2="374.6" y2="300.86" gradientUnits="userSpaceOnUse"><stop offset="0" stop-color="#bdbdbd"/><stop offset="0.55" stop-color="#ccc"/><stop offset="0.91" stop-color="#d9d9d9"/></linearGradient><linearGradient id="Безымянный_градиент_39-4" x1="359.13" y1="132" x2="390.15" y2="132" xlink:href="#Безымянный_градиент_39"/><linearGradient id="Безымянный_градиент_139-2" x1="359.13" y1="130.5" x2="389.36" y2="130.5" xlink:href="#Безымянный_градиент_139"/><linearGradient id="Безымянный_градиент_123-2" x1="-3091.06" y1="279.01" x2="-3005.59" y2="239.45" gradientTransform="matrix(-0.99, 0.1, 0.1, 0.99, -2683.15, 139.64)" xlink:href="#Безымянный_градиент_123"/><linearGradient id="Безымянный_градиент_48" x1="-3002.43" y1="262.28" x2="-3032.65" y2="291.94" gradientTransform="matrix(-0.99, 0.1, 0.1, 0.99, -2683.15, 139.64)" gradientUnits="userSpaceOnUse"><stop offset="0" stop-color="#a04400"/><stop offset="1" stop-color="#753200"/></linearGradient><linearGradient id="Безымянный_градиент_123-3" x1="-3002.5" y1="241.18" x2="-3006.4" y2="245.01" gradientTransform="matrix(-0.99, 0.1, 0.1, 0.99, -2683.15, 139.64)" xlink:href="#Безымянный_градиент_123"/><linearGradient id="Безымянный_градиент_39-5" x1="325.16" y1="169.48" x2="331.96" y2="169.48" xlink:href="#Безымянный_градиент_39"/><linearGradient id="Безымянный_градиент_39-6" x1="324.46" y1="198.01" x2="331.27" y2="198.01" xlink:href="#Безымянный_градиент_39"/><linearGradient id="Безымянный_градиент_39-7" x1="321.77" y1="226.99" x2="328.57" y2="226.99" xlink:href="#Безымянный_градиент_39"/><linearGradient id="Безымянный_градиент_39-8" x1="318.37" y1="259.32" x2="325.17" y2="259.32" xlink:href="#Безымянный_градиент_39"/><linearGradient id="Безымянный_градиент_39-9" x1="313.25" y1="294.36" x2="320.06" y2="294.36" xlink:href="#Безымянный_градиент_39"/><linearGradient id="Безымянный_градиент_39-10" x1="363.04" y1="165.36" x2="371.08" y2="165.36" xlink:href="#Безымянный_градиент_39"/><linearGradient id="Безымянный_градиент_39-11" x1="365.69" y1="193.97" x2="373.72" y2="193.97" xlink:href="#Безымянный_градиент_39"/><linearGradient id="Безымянный_градиент_39-12" x1="369.62" y1="223.95" x2="377.9" y2="223.95" xlink:href="#Безымянный_градиент_39"/><linearGradient id="Безымянный_градиент_39-13" x1="372.13" y1="255.92" x2="380.41" y2="255.92" xlink:href="#Безымянный_градиент_39"/><linearGradient id="Безымянный_градиент_39-14" x1="376.03" y1="292.4" x2="384.62" y2="292.4" xlink:href="#Безымянный_градиент_39"/><linearGradient id="Безымянный_градиент_139-3" x1="371.66" y1="217.82" x2="396.04" y2="217.82" xlink:href="#Безымянный_градиент_139"/><linearGradient id="Безымянный_градиент_139-4" x1="308.48" y1="191.42" x2="309.37" y2="171.13" xlink:href="#Безымянный_градиент_139"/><linearGradient id="Безымянный_градиент_39-15" x1="308.48" y1="189.92" x2="309.37" y2="169.63" xlink:href="#Безымянный_градиент_39"/><linearGradient id="Безымянный_градиент_39-16" x1="294.74" y1="210.6" x2="324.23" y2="210.6" xlink:href="#Безымянный_градиент_39"/><linearGradient id="Безымянный_градиент_44" x1="311.64" y1="524.2" x2="311.64" y2="315.43" gradientUnits="userSpaceOnUse"><stop offset="0.31" stop-color="#fff"/><stop offset="0.44" stop-color="#ecedf4"/><stop offset="0.69" stop-color="#cacde2"/><stop offset="0.99" stop-color="#bbbfd9"/></linearGradient><linearGradient id="Безымянный_градиент_271-3" x1="388.02" y1="385.6" x2="396.02" y2="314.6" xlink:href="#Безымянный_градиент_271"/><linearGradient id="Безымянный_градиент_48-2" x1="502.73" y1="277.7" x2="481.06" y2="266.36" gradientTransform="matrix(1, 0, 0, 1, 0, 0)" xlink:href="#Безымянный_градиент_48"/><linearGradient id="Безымянный_градиент_43" x1="517.81" y1="352.88" x2="549.65" y2="352.88" gradientUnits="userSpaceOnUse"><stop offset="0" stop-color="#c2c2c2"/><stop offset="1" stop-color="#bdbdbd"/></linearGradient><linearGradient id="Безымянный_градиент_271-4" x1="452.15" y1="421.94" x2="478.4" y2="374.26" xlink:href="#Безымянный_градиент_271"/><linearGradient id="Безымянный_градиент_123-4" x1="547.96" y1="244.33" x2="496.29" y2="195.82" xlink:href="#Безымянный_градиент_123"/><linearGradient id="Безымянный_градиент_87" x1="502.65" y1="202.17" x2="521.31" y2="198.18" gradientUnits="userSpaceOnUse"><stop offset="0" stop-color="#a04400" stop-opacity="0"/><stop offset="0.18" stop-color="#9a4100" stop-opacity="0.14"/><stop offset="0.52" stop-color="#8a3b00" stop-opacity="0.52"/><stop offset="0.9" stop-color="#753200"/></linearGradient><linearGradient id="Безымянный_градиент_123-5" x1="482.08" y1="233.84" x2="491.92" y2="233.84" xlink:href="#Безымянный_градиент_123"/><linearGradient id="Безымянный_градиент_123-6" x1="532.76" y1="258.26" x2="483.03" y2="211.57" xlink:href="#Безымянный_градиент_123"/><linearGradient id="Безымянный_градиент_39-17" x1="330.94" y1="128.43" x2="314.27" y2="134.59" xlink:href="#Безымянный_градиент_39"/><linearGradient id="Безымянный_градиент_139-5" x1="323.67" y1="161.68" x2="333.34" y2="161.68" xlink:href="#Безымянный_градиент_139"/><linearGradient id="Безымянный_градиент_39-18" x1="359.87" y1="158.64" x2="372.31" y2="158.64" xlink:href="#Безымянный_градиент_39"/><linearGradient id="Безымянный_градиент_41" x1="226.97" y1="446.79" x2="354.47" y2="446.79" gradientUnits="userSpaceOnUse"><stop offset="0.01" stop-color="#bbbfd9"/><stop offset="0.77" stop-color="#cacde1"/><stop offset="1" stop-color="#d0d2e4"/></linearGradient><linearGradient id="Безымянный_градиент_133" x1="155.41" y1="470.17" x2="206.54" y2="458.43" gradientUnits="userSpaceOnUse"><stop offset="0" stop-color="#abaaea"/><stop offset="1" stop-color="#e7eefe"/></linearGradient><linearGradient id="Безымянный_градиент_130" x1="157.74" y1="451.19" x2="203.03" y2="451.19" gradientUnits="userSpaceOnUse"><stop offset="0" stop-color="#cdccff"/><stop offset="0.89" stop-color="#8988d5"/></linearGradient><linearGradient id="Безымянный_градиент_139-6" x1="129.53" y1="431.21" x2="181.23" y2="431.21" xlink:href="#Безымянный_градиент_139"/><linearGradient id="Безымянный_градиент_5" x1="169.88" y1="426.58" x2="150.73" y2="419.91" gradientUnits="userSpaceOnUse"><stop offset="0" stop-color="#1f1844"/><stop offset="0.99" stop-color="#3d3c99"/></linearGradient><linearGradient id="Безымянный_градиент_5-2" x1="173.61" y1="440.54" x2="150.64" y2="437.8" xlink:href="#Безымянный_градиент_5"/><linearGradient id="Безымянный_градиент_33" x1="1165.27" y1="1870.18" x2="1172.7" y2="1870.18" gradientTransform="translate(-1989.1 -77.53) rotate(-45.37)" gradientUnits="userSpaceOnUse"><stop offset="0" stop-color="#e0e4eb"/><stop offset="0.99" stop-color="#f3f6fd"/></linearGradient><linearGradient id="Безымянный_градиент_33-2" x1="1104.68" y1="3035.11" x2="1112.17" y2="3035.11" gradientTransform="translate(-3067.8 552.97) rotate(-72.22)" xlink:href="#Безымянный_градиент_33"/><linearGradient id="Безымянный_градиент_33-3" x1="-1837.86" y1="139.38" x2="-1830.42" y2="139.38" gradientTransform="matrix(0.63, 0.78, -0.78, 0.63, 1444.7, 1739.15)" xlink:href="#Безымянный_градиент_33"/><linearGradient id="Безымянный_градиент_33-4" x1="-2174.15" y1="67.37" x2="-2166.54" y2="67.37" gradientTransform="matrix(0.5, 0.87, -0.77, 0.45, 1319.51, 2268.02)" xlink:href="#Безымянный_градиент_33"/><linearGradient id="Безымянный_градиент_33-5" x1="599.99" y1="719.73" x2="610.92" y2="719.73" gradientTransform="translate(-579.87 -136.55) rotate(-13.38)" xlink:href="#Безымянный_градиент_33"/><linearGradient id="Безымянный_градиент_33-6" x1="1051.53" y1="3607.58" x2="1059.31" y2="3607.58" gradientTransform="matrix(0.04, -0.93, 1, 0.04, -3502.84, 1267.83)" xlink:href="#Безымянный_градиент_33"/><linearGradient id="Безымянный_градиент_33-7" x1="-2462.63" y1="99.04" x2="-2454.21" y2="99.04" gradientTransform="matrix(0.35, 0.94, -0.74, 0.28, 1110.94, 2709.49)" xlink:href="#Безымянный_градиент_33"/><linearGradient id="Безымянный_градиент_11" x1="179.36" y1="374.32" x2="173.74" y2="397.3" gradientUnits="userSpaceOnUse"><stop offset="0" stop-color="#e6eaf1"/><stop offset="0.99" stop-color="#f3f6fd"/></linearGradient><linearGradient id="Безымянный_градиент_123-7" x1="517.11" y1="253.34" x2="570.46" y2="235.18" xlink:href="#Безымянный_градиент_123"/><linearGradient id="Безымянный_градиент_138" x1="168.5" y1="254.94" x2="181.63" y2="182.95" gradientUnits="userSpaceOnUse"><stop offset="0.38" stop-color="#201f4f"/><stop offset="0.54" stop-color="#27275a"/><stop offset="0.83" stop-color="#393c76"/><stop offset="1" stop-color="#464b8b"/></linearGradient><linearGradient id="Безымянный_градиент_269" x1="274.29" y1="425.32" x2="390.81" y2="425.32" gradientUnits="userSpaceOnUse"><stop offset="0" stop-color="#fff"/><stop offset="0.16" stop-color="#f2f3f8"/><stop offset="0.71" stop-color="#cacde2"/><stop offset="0.99" stop-color="#bbbfd9"/></linearGradient><linearGradient id="Безымянный_градиент_16" x1="233.05" y1="329.43" x2="240.05" y2="293.68" gradientUnits="userSpaceOnUse"><stop offset="0.11" stop-color="#8988d5"/><stop offset="0.56" stop-color="#9d9ce8"/><stop offset="1" stop-color="#a7a5ee"/></linearGradient><linearGradient id="Безымянный_градиент_250" x1="130.73" y1="308.48" x2="225.37" y2="308.48" gradientUnits="userSpaceOnUse"><stop offset="0" stop-color="#a7a5ee"/><stop offset="0.44" stop-color="#9d9ce8"/><stop offset="0.89" stop-color="#8988d5"/></linearGradient><linearGradient id="Безымянный_градиент_123-8" x1="122.03" y1="208.04" x2="197.68" y2="173.02" xlink:href="#Безымянный_градиент_123"/><linearGradient id="Безымянный_градиент_48-3" x1="-3574.58" y1="799.93" x2="-3601.57" y2="826.42" gradientTransform="matrix(-0.98, 0.21, 0.21, 0.98, -3506.85, 205.89)" xlink:href="#Безымянный_градиент_48"/><linearGradient id="Безымянный_градиент_123-9" x1="-3574.64" y1="781.08" x2="-3578.12" y2="784.5" gradientTransform="matrix(-0.98, 0.21, 0.21, 0.98, -3506.85, 205.89)" xlink:href="#Безымянный_градиент_123"/><linearGradient id="Безымянный_градиент_139-7" x1="116.66" y1="210.87" x2="232.68" y2="210.87" xlink:href="#Безымянный_градиент_139"/><linearGradient id="Безымянный_градиент_77" x1="211.03" y1="230.3" x2="147.39" y2="216.13" gradientUnits="userSpaceOnUse"><stop offset="0" stop-color="#401b00"/><stop offset="1" stop-color="#823700"/></linearGradient><linearGradient id="Безымянный_градиент_86" x1="172.82" y1="210.78" x2="206.57" y2="167.53" gradientUnits="userSpaceOnUse"><stop offset="0" stop-color="#a04400" stop-opacity="0"/><stop offset="0.17" stop-color="#813700" stop-opacity="0.31"/><stop offset="0.44" stop-color="#5b2700" stop-opacity="0.69"/><stop offset="0.69" stop-color="#451d00" stop-opacity="0.92"/><stop offset="0.9" stop-color="#3d1a00"/></linearGradient><linearGradient id="Безымянный_градиент_83" x1="150.79" y1="227.22" x2="183.79" y2="245.56" gradientUnits="userSpaceOnUse"><stop offset="0" stop-color="#a04400"/><stop offset="1" stop-color="#3d1b00"/></linearGradient><linearGradient id="Безымянный_градиент_139-8" x1="90.13" y1="430" x2="90.13" y2="403.47" xlink:href="#Безымянный_градиент_139"/><linearGradient id="Безымянный_градиент_139-9" x1="78.68" y1="410.41" x2="78.68" y2="324.55" xlink:href="#Безымянный_градиент_139"/><linearGradient id="Безымянный_градиент_139-10" x1="1272.89" y1="1509.09" x2="1272.89" y2="1465.27" gradientTransform="matrix(0.73, -0.69, 0.69, 0.73, -1845.18, 114.59)" xlink:href="#Безымянный_градиент_139"/></defs><g class="cls-1"><g id="Layer_2" data-name="Layer 2"><g id="_16" data-name="16"><path class="cls-2" d="M557.23,270c-64.38,32.92-40,70.4-27.19,109.93,9.76,30.07,12.85,61.34-34.86,92.7L44.47,469.19c-21.55-24.88-41.82-50.45-44-81.1-3-42.1,8-84,20.91-110.46C76.41,165.16,233.77.43,438.23,0,651.6-.44,672.23,211.17,557.23,270Z"/><rect class="cls-3" x="2.14" y="45.75" width="304.74" height="209.26" rx="11.07"/><rect class="cls-4" x="10.81" y="54.73" width="287.41" height="191.31" rx="6.61"/><path class="cls-5" d="M549.65,230.39l59.59,15.29A32.18,32.18,0,0,1,631.5,287.8L590,402.32,448.42,348.81l57.13-125.42Z"/><path class="cls-6" d="M475.38,277a126.59,126.59,0,0,0-15,27.79c-6,15.84-23.39,39.7-23.39,39.7l19.18,7.24s17.42-29.52,19.18-36.94S475.38,277,475.38,277Z"/><path class="cls-7" d="M456.2,351.75l69.08,26.1,41.86,15.82s14-1.77,15-10.27-3-81.5-11.75-98S539.9,265,539.9,265s-16.75,13.17-26.75,12-6.59-12-6.59-12l-10.91-2.26L483,265.12,475.38,277Z"/><path class="cls-8" d="M279.56,289.14s7,20.84,15.09,19.51c0-4.67,3.58-17.69,3.58-17.69l-4.81-11.68Z"/><polygon class="cls-9" points="297.79 281.48 292.23 314.81 399.19 325.6 394.62 283.41 297.79 281.48"/><path class="cls-10" d="M373.18,292.4c-3.72.54-39.95.15-50.47-1.44,1.63-11.56,9.58-68.45,10.19-89.26.3-10.28.6-23.42.5-34.92l0-2c0-.58,0-1.16,0-1.73,0-.18,0-.36,0-.54,0-.38,0-.76,0-1.13,0-.9-.05-1.78-.08-2.65s-.05-1.61-.08-2.39q-.11-2.34-.24-4.44c0-.5-.07-1-.11-1.47l-.06-.77c0-.26-.05-.5-.07-.75s-.05-.6-.09-.89-.05-.44-.07-.66q-.11-1-.24-1.83c0-.16,0-.31-.07-.47-.12-.76-.25-1.44-.4-2q-.09-.36-.18-.69l-.15-.48a2.85,2.85,0,0,0-.16-.44,3.17,3.17,0,0,0-.17-.37.48.48,0,0,0-.08-.16.6.6,0,0,0-.09-.15h0l-2.25-20.76a23.73,23.73,0,0,1,2.4,0s21.66.47,30.61.1c1.74,5.47,3.63,12.86,2.08,15.34-2.32,3.69-6.49,4.33-3.81,12h0a3.05,3.05,0,0,0-.13.32,3.58,3.58,0,0,0-.11.35c0,.12-.07.25-.1.38l-.09.4C358.24,155.44,373,290.8,373.18,292.4Z"/><path class="cls-11" d="M332.9,201.7c-.61,20.81-10,88.37-11.67,99.93a166.76,166.76,0,0,1-28.53-6.81l-.47-105L281.77,215.9l12.88,62.5-18.25,13c-9.37,3.52-25.25-61.19-24.39-75.78.85-14.36,27.64-67.72,36.64-78.14,5.45-6.31,19.86-11.41,30.38-14.45l-10.46,27.12s8.87,2.64,10.93-2,7.15-10,10.94-8a.8.8,0,0,1,.19.13,1.29,1.29,0,0,1,.19.21l.15.21h0a.6.6,0,0,1,.09.15.48.48,0,0,1,.08.16,3.17,3.17,0,0,1,.17.37,4.5,4.5,0,0,1,.16.44l.15.48q.09.33.18.69c.14.6.27,1.28.4,2,0,.16.05.31.07.47.08.58.17,1.19.24,1.83,0,.22.05.44.07.66l.09.89c0,.25.05.49.07.75l.06.77c0,.48.07,1,.11,1.47q.13,2.1.24,4.44c0,.78.06,1.57.08,2.39s0,1.75.08,2.65c0,.37,0,.75,0,1.13,0,.18,0,.36,0,.54l0,1.73,0,2C333.5,178.28,333.2,191.42,332.9,201.7Z"/><path class="cls-12" d="M485.32,261.48l-10.76,16.84a3.57,3.57,0,0,1-5.27.83l-49.49-40.5-25.57-36.46,6.24,91.22s.5,3.62-26.36,7.52c-.18-1.6-15.87-145.49-14.54-152.12l.09-.4c0-.13.06-.26.1-.38a3.58,3.58,0,0,1,.11-.35,3.05,3.05,0,0,1,.13-.32h0a2.9,2.9,0,0,1,.21-.47,1.83,1.83,0,0,1,.13-.24l.18-.29a1.85,1.85,0,0,1,.19-.27,1.37,1.37,0,0,1,.2-.22.05.05,0,0,1,0,0,1.45,1.45,0,0,1,.22-.21,2.11,2.11,0,0,1,.23-.19,2.52,2.52,0,0,1,.68-.4l.26-.1a2.94,2.94,0,0,1,.82-.18,4.19,4.19,0,0,1,.5,0,7.42,7.42,0,0,1,3.25.89l-3.09-6.78,23.84,4.45L376,123.5c11.77,5.12,27.23,15.08,30.86,25.31,5.33,15,33.24,66.81,33.24,66.81l44.78,42.6A2.57,2.57,0,0,1,485.32,261.48Z"/><path class="cls-13" d="M88.06,226.44c-18.7,6.43-32.22,31.34-24.71,54.71l24.21,75.33,134.2-27.66L162.18,217.48Z"/><path class="cls-14" d="M332,145.69a1.91,1.91,0,0,0-.15-.21,1.29,1.29,0,0,0-.19-.21.8.8,0,0,0-.19-.13c-3.79-2-8.87,3.33-10.94,8s-11.92-3-11.92-3L320,128l1.2-3.1,8.43-7.61,0,8.45,1.29,15Z"/><path class="cls-15" d="M374.11,300.94h0"/><path class="cls-16" d="M367.44,142.48l1.27,4.87c-2.77-.95-6.09-2-7.77,0a.05.05,0,0,0,0,0,4.4,4.4,0,0,0-.91,1.49c-2.68-7.64,1.49-8.28,3.81-12,1.55-2.48-.34-9.87-2.08-15.34-1.16-3.61-2.24-6.38-2.24-6.38l10.91,1.45L376,125l13.83,19a1.42,1.42,0,0,1-1.4,2.24Z"/><path class="cls-17" d="M365.9,140.71l1,4.89a7.42,7.42,0,0,0-3.25-.89,4.19,4.19,0,0,0-.5,0,2.94,2.94,0,0,0-.82.18l-.26.1a2.52,2.52,0,0,0-.68.4,2.11,2.11,0,0,0-.23.19,1.45,1.45,0,0,0-.22.21.05.05,0,0,0,0,0,1.37,1.37,0,0,0-.2.22,1.85,1.85,0,0,0-.19.27l-.18.29a1.83,1.83,0,0,0-.13.24,2.9,2.9,0,0,0-.21.47c-2.68-7.64,1.49-8.28,3.81-12,1.55-2.48-.34-9.87-2.08-15.34-1.16-3.61-2.24-6.38-2.24-6.38l10.91,1.45L376,123.5,389.13,143a1.31,1.31,0,0,1-1.34,2Z"/><path class="cls-18" d="M329.61,124.18c.14-2.36.6-8.42.82-15.48.15-4.89.29-10,.41-13.85,0-.34,0-.67,0-1a48.15,48.15,0,0,0-.16-6.34c-.09-.12-.18-.25-.26-.38-7.53-10.69-7.21-18.26-3.07-21.21a6.5,6.5,0,0,1,1.78-.91h0s-3.24-14.26,1.45-26.51C336.82,22.31,359,19.85,373,22.4s27.5,17.66,24.4,33.16c-1.23,6.17-3.46,11.89-3.58,17.42s3,14.36-.24,23.66c-4.7,13.33-18.1,18.15-26.51,19a26.37,26.37,0,0,1-3.23.11l-.14,2.33-.11,1.89-.12,2c-.27,4.59-.72,5.67-.72,5.67a15,15,0,0,1-15.4,9.78C335.29,136.74,329.28,129.9,329.61,124.18Z"/><path class="cls-19" d="M330.84,94.85c9.13,16.63,22.51,22.57,32.71,25.09l.11-1.89.14-2.33c-9.73-4.09-21-12.41-33.36-28.58.08.13.17.26.26.38a48.15,48.15,0,0,1,.16,6.34C330.85,94.18,330.85,94.51,330.84,94.85Z"/><path class="cls-20" d="M334,71.9s-2.83-4.21-5.05-1.17.88,8.49.88,8.49Z"/><circle class="cls-21" cx="328.56" cy="169.48" r="3.4"/><circle class="cls-22" cx="327.87" cy="198.01" r="3.4"/><circle class="cls-23" cx="325.17" cy="226.99" r="3.4"/><circle class="cls-24" cx="321.77" cy="259.32" r="3.4"/><circle class="cls-25" cx="316.66" cy="294.36" r="3.4"/><line class="cls-26" x1="363.23" y1="166.08" x2="370.9" y2="164.65"/><line class="cls-27" x1="365.87" y1="194.68" x2="373.54" y2="193.25"/><line class="cls-28" x1="369.71" y1="224.3" x2="377.81" y2="223.59"/><line class="cls-29" x1="372.22" y1="256.28" x2="380.32" y2="255.56"/><line class="cls-30" x1="376.27" y1="293.41" x2="384.38" y2="291.4"/><polyline class="cls-31" points="395.89 284.48 387.56 286.98 372.22 157.48 392.56 157.48 390.15 148.13"/><line class="cls-32" x1="270.6" y1="278.24" x2="290.65" y2="265.15"/><line class="cls-32" x1="460.41" y1="267.43" x2="472.4" y2="249.01"/><polygon class="cls-33" points="297.17 178.11 321.23 179.14 320.32 185.77 307.63 189.81 296.56 184.77 297.17 178.11"/><polygon class="cls-34" points="297.17 176.61 321.23 177.64 320.32 184.27 307.63 188.31 296.56 183.27 297.17 176.61"/><path class="cls-35" d="M295.24,132.37l2.92,29.88L323.7,162c-3.31,64.84-4.3,71.45-10.3,126.27l-15-3.37"/><path class="cls-36" d="M342.52,75.82l-.55,3.8c8.64,4.92,26,19,29.7,19.63,4.71.73,6.29-4.75,8.84-3.48s2.17,4.57,3.94,4.57c.92,0,7.86-3.9,9.84-6.26,0,0-2.4,7.83-3.06,9.46-1.53,3.78-12,13.29-12,13.29a4.33,4.33,0,0,1-3.46,1.12l-11.14-1.25-5.6-3.23c-7.8-4.17-23.54-20.61-23.61-22.86a54.25,54.25,0,0,1,1.26-12.44Z"/><path class="cls-37" d="M622.79,414.5C599.67,542,290.54,527.36,162.89,516.19,93.54,510.12,7.69,483.73.56,389c0-.31-.05-.61-.07-.92V374.28L332,304.81Z"/><ellipse class="cls-38" cx="175.98" cy="466.59" rx="30.81" ry="15.44"/><ellipse class="cls-38" cx="85.74" cy="411.64" rx="30.81" ry="15.44"/><polygon class="cls-39" points="345.02 378.81 342.1 381.32 448.42 428.19 523.23 392.61 345.02 378.81"/><polygon class="cls-40" points="332.14 294.94 345.02 374.28 450.56 417.15 433.92 327.9 332.14 294.94"/><path class="cls-41" d="M475.38,277s3.68,5.29,6.68,7.29,7.67,6.7,8.34,9.1,5.33-2.26,2.16-7.26-6.83-8-5.83-10S496.9,264,506.56,265s2-8.5-2.33-8.5-20,6.68-20,6.68Z"/><path class="cls-42" d="M548.15,327.9l1.5,40.75-24.37,9.2L517.81,375l25.59-9.13S546.9,328.4,548.15,327.9Z"/><polygon class="cls-43" points="450.56 417.15 523.23 386.81 438.55 352.69 450.56 417.15"/><path class="cls-44" d="M538.36,203.94c-2.08,4.43-7.39,9.13-7.57,10.56h0c-2.19,4.55-7.08,14.47-10.3,19.41-4.26,6.54-17,7.62-21.6,1.21s-15-14.38-15-14.38-5.71-4.8-5.17-7.35,12.36-6.71,13.18-11.88c.37-2.37-.3-4.68-.82-7.1-.61-2.84-1-5.84.76-9.31l0-.09c1-2,5.05-2.08,10.34-1.09,1.38.25,2.84.59,4.36,1h0c11.52,2.95,26.2,9.24,30.68,12.4C539.69,199,539.54,201.42,538.36,203.94Z"/><path class="cls-45" d="M544.36,201l-7.7,13.32-11.13-2.9-3.31-11.64-24-6.26-7.09.95c-.61-2.84-1-5.84.76-9.31l10.38-1.18,4.36,1h0l27.78,6.22Z"/><path class="cls-36" d="M540.05,220.63c-3.49.87-7.93,2.85-10,6.81a18.1,18.1,0,0,0-1.82,10.5c-.3-.12-.48-.21-.48-.21s-4.35,14.71-8.44,18.06c-1.92,1.58-9.53,1.66-17.55,1-9.06-.69-18.65-2.28-21.12-3.58-4.62-2.45-2.45-10.62,0-13.88a9.61,9.61,0,0,0,1.44-2.86c3.57,1.39,8.85,3.09,9.73,1.5,1-1.84-5.35-6.62-9.73-9a4.36,4.36,0,0,0-.62-1.1c-1.9-2.45,2.45-7.18,2.45-7.18s10.35,8,15,14.38,17.34,5.33,21.6-1.21c3.22-4.94,8.11-14.85,10.3-19.41,0,.23,0,.35,0,.35S535.32,219.44,540.05,220.63Z"/><path class="cls-46" d="M491.81,238c-.88,1.59-6.16-.11-9.73-1.5a11.38,11.38,0,0,0,0-7.48C486.46,231.39,492.83,236.17,491.81,238Z"/><path class="cls-47" d="M543.54,235.13a7.61,7.61,0,0,1-2.58,3.06c-.23,1.37-.54,3.25-.85,5.42l-.64,4.68c-.76,6-1.34,12.8-.83,16.76,1.09,8.35-28.05,17.61-33.76,14.62-4-2.11-3.87-13.07-3.42-19.38.1-1.46.22-2.67.3-3.46,8,.62,15.63.54,17.55-1a13.87,13.87,0,0,0,2.86-3.91,88.89,88.89,0,0,0,5.58-14.15s-.08-7,1.64-10.34a16.06,16.06,0,0,1,9.8-7.63c.16,0,2,0,2.18,0C546.27,220.75,547.63,226.84,543.54,235.13Z"/><path class="cls-36" d="M510.08,149.38l-.42,1.93-4-1.31-1,.84-1.15-.1v-1.36l-11.61-1.68v2.2l-5-.94s-1.15,2-1.57,1.51a.54.54,0,0,0-.84,0v.89l9,1.89-.42,2.3,5.23.94s3.24-1.26,3.08,0-3.92.56-4.65.56-.73,2-.73,2-2.93-.63-3.35-.63-.21.63-2.09.63-2.09-1-2.09-1l-8.58-.21v1.25s-4.91-.21-5.43.84,6.69,0,6.69,0v1.36l3.45.83s-7.63,4-9.52,7.32a1.37,1.37,0,0,1,1,.35s-4.32,3.59-3,7.67c.77-1.12,1.12-1.57,1.12-1.57l7.28.94-.52,1.71-7.22,1.57,0,1.95s-5.16.66-4.85,2.75,6.59-.62,6.59-.62a3.63,3.63,0,0,0,.63,2.51c-.63,1.29-4.71,7.73-4.71,7.73h1.36s-3.24,6-2.4,9.21a53.17,53.17,0,0,1,4.81-10.15h.63l6-6.79,17.53,2.41,17.36-18L519,150.89ZM496.23,172.8l-6.17.52-.79-1.88s-8.78,1.31-9.2.78,0,1.68,0,1.68l-5.38-.37,3.29-4.39,1,.78L484,167.3l2.2-1.14.26,1.36-2.87.94-1.05.47.26,1.52,7.53-1.15.16.73h-.94s.63,1.46,1,1.46,7.74-.36,7.74-.36Z"/><path class="cls-36" d="M551.87,168.08l-1.93.45-.52-4.15-1.21-.59-.4-1.08,1.23-.59-3.47-11.2-2,1-1.3-4.94s-2.29-.19-2-.77a.53.53,0,0,0-.36-.75l-.8.38,2.16,8.93-2.26.61,1.39,5.12s2.53,2.39,1.33,2.79-2.19-3.3-2.5-4-2.17.22-2.17.22-.69-2.92-.87-3.29-.66.08-1.47-1.62,0-2.34,0-2.34l-3.49-7.84-1.13.54s-1.92-4.53-3.09-4.55,2.87,6,2.87,6l-1.23.59.73,3.47s-6.87-5.19-10.7-5.45a1.38,1.38,0,0,1,.12,1.06s-5.1-2.36-8.2.61c1.34.22,1.9.34,1.9.34l2.27,7-1.76.26-4.51-5.84-1.78.81s-2.81-4.38-4.57-3.2,3.39,5.68,3.39,5.68a3.61,3.61,0,0,0-2,1.65c-1.44,0-9-.93-9-.93l.58,1.22s-6.77-.37-9.34,1.78a53,53,0,0,1,11.22,0l.27.57,8.7,2.47,13.44,20.28,15.65,4.53,19.25-6.52Zm-27.1-2.47-3.12-5.35,1.36-1.51s-5-7.38-4.66-8-1.51.72-1.51.72l-2-5,5.38,1.09-.28,1.23,4.54,3.45,2,1.5-1.12.82-2.08-2.19-.87-.75-1.26.89,4.27,6.31-.6.45-.4-.85s-1,1.2-.9,1.53,3.65,6.83,3.65,6.83Z"/><path class="cls-36" d="M543.27,165.47l4.69-1.81,1,1.81s5.73-1.6,6.56-.9.63,1.32.63,1.32l6.67.83-.73.94s2.08,1.56,1.77,1.56a27.23,27.23,0,0,0-2.81.42,17.46,17.46,0,0,1-2.3,0l-.52,1-1.67.52s4.38.21,4.9,1.78,6.88,1.14,6.36,2.39a3.49,3.49,0,0,1-1.25,1.67s5.11,1.46,4.9,2.19-1.67,1-1.67,1l-3-.42a2.63,2.63,0,0,0,.1,2,17.69,17.69,0,0,0,3.34,2.29l-.1,1s2.18,1.36,2,2.29l-.21.94s2.4,2.5,2.29,3.13-1.56.73-1.56.73.1.94-.52,1a3.61,3.61,0,0,1-1.67-.42l-1.36.44-1.56-1.27s5.21,7.51,4.06,7.92l-1.14.42s3.44,6.67,1.77,6.67-2-.45-2-.45l-1.67-4.24-1.56.52L565,199.45l-6.2.21-4.43-9Z"/><path class="cls-36" d="M553.12,178.93c-.85-.42,0-2.56.86-3.84a6,6,0,0,0,.87-1.56c-.67.82-1.11,1.38-1.11,1.38s-.24-3.07-.39-6a10.34,10.34,0,0,1-1.51-.25c-9.17-1.83-17.54-4.63-26.08-6.62a1.76,1.76,0,0,1-.67-.15,85.35,85.35,0,0,0-13.89-2.11c-1.07,10.23-6.58,20.12-11.92,29.33,7.51,2.3,21,6,21,6l19.74,4.93-20.23-2.52-1,4.94,13.57,3.31L528.11,220l6,2.15s4.73-3.73,8.17-.84,2.1,12-2.21,17.31a40.7,40.7,0,0,1-.86,9.58s13.42-23.91,18.86-29.43,7.2-12.44,7.27-15.31c0-1.84,2.24-5.28,4.17-8.08C563.6,190.41,559.55,183.93,553.12,178.93Z"/><path class="cls-48" d="M333.41,139.7s12.73,6.56,23.23.7"/><path class="cls-49" d="M331,140.7l-.15-.21a1.29,1.29,0,0,0-.19-.21.8.8,0,0,0-.19-.13c-3.79-2-8.87,3.33-10.94,8s-10.93,2-10.93,2L315.3,122l15.14-10.13L329.61,125Z"/><line class="cls-50" x1="323.7" y1="162" x2="333.31" y2="161.36"/><line class="cls-51" x1="372.22" y1="157.48" x2="359.96" y2="159.79"/><polygon class="cls-52" points="450.56 417.15 450.56 422.87 523.23 392.61 523.23 386.81 450.56 417.15"/><polygon class="cls-52" points="450.56 422.87 345.02 378.81 345.02 374.28 450.56 417.15 450.56 422.87"/><circle class="cls-4" cx="380.32" cy="352.88" r="9.04"/><path class="cls-48" d="M496.22,272.2s1.08,11.22,7.5,13.25c10.25,3.25,35.47-10.18,35.47-10.18"/><polygon class="cls-53" points="354.47 456.14 271.97 471.97 226.97 430.14 277.94 421.61 293.47 450.14 342.4 446.79 354.47 456.14"/><polygon class="cls-54" points="356.79 453.82 274.29 469.65 229.29 427.82 280.26 419.29 295.79 447.82 344.72 444.47 356.79 453.82"/><path class="cls-55" d="M206.88,461.71c0,11.23-11.86,20.32-26.5,20.32s-26.5-9.09-26.5-20.32a16.89,16.89,0,0,1,3.86-10.57v.06c0,3,10.14,5.39,22.64,5.39S203,454.17,203,451.2v-.05A16.89,16.89,0,0,1,206.88,461.71Z"/><path class="cls-56" d="M203,451.15v.05c0,3-10.14,5.39-22.65,5.39s-22.64-2.42-22.64-5.39v-.06c0-.77.73-1.5,2-2.16h0c3.55-1.87,11.45-3.17,20.64-3.17s17.1,1.3,20.65,3.17h0C202.29,449.64,203,450.37,203,451.15Z"/><path class="cls-57" d="M181.23,453.49c-.91,0-2,0-3.37-.13l-.23,0c-6.8-.57-17.9-3.09-24.59-13.3a29.39,29.39,0,0,1-1.87-3.33,34.8,34.8,0,0,1-2.54-7.27c-2.32-9.91-14.82-16.68-19.1-17.71,1.44-5.13,19.46-2.82,30.53,3.85a20.21,20.21,0,0,1,7.36,6.9h0l1.38,5.9a35.08,35.08,0,0,0,2.48,9.41,45.59,45.59,0,0,0,2.12,4.5,57.58,57.58,0,0,0,5.22,8.06C180.15,452.35,181.23,453.49,181.23,453.49Z"/><path class="cls-58" d="M176.85,451.19s-13.82-8.06-16.47-19-11.11-18.4-19.86-19.39"/><path class="cls-54" d="M181.23,453.49s-7.76-31.59,1.52-39.78,22.65-11.23,34.13-5c-13.85.83-17.71,10.27-16.81,18.87C200.9,435.44,190.51,455.66,181.23,453.49Z"/><path class="cls-59" d="M181.23,453.49c14.32-12.77-8.5-33.24,25.65-45.61"/><path class="cls-60" d="M168.8,428.39c-5.49,1-19.81-4.77-19.51-8.8.26-3.69,12.09-.86,18.13,2.89h0Z"/><path class="cls-61" d="M173.4,442.3c-3.81,1.79-15.39.33-20.36-2.26-1.27-.66-2.11-1.4-2.27-2.17a1.16,1.16,0,0,1,.4-1.16c2.37-2.22,14.2-1.32,20.11,1.09A45.59,45.59,0,0,0,173.4,442.3Z"/><path class="cls-62" d="M155.82,393.83c2.58-4.37,21.09,13.65,17.85,17.6S153.37,398,155.82,393.83Z"/><path class="cls-63" d="M150.77,418.54c.37-5.08,22.72,2.23,21.58,7.25S150.42,423.39,150.77,418.54Z"/><path class="cls-64" d="M192.23,396c4,3.1-15.58,19.93-19.07,16.2S188.46,393.07,192.23,396Z"/><path class="cls-65" d="M190.36,417.55c3.33,3.76-15.54,13.22-18.38,8.95S187.19,414,190.36,417.55Z"/><path class="cls-66" d="M173.44,392.37a147.46,147.46,0,0,1-1.15,24.38c-1.73,11.36,2.62,30.59,9.7,36.73"/><path class="cls-67" d="M150.77,437c-1-4.67,23.66-2,23.87,2.82S151.7,441.42,150.77,437Z"/><path class="cls-68" d="M191.24,429.34c2.56,4.33-15.09,15.11-17.15,10.4S188.81,425.23,191.24,429.34Z"/><path class="cls-69" d="M179.7,373.69c5,.36-1.46,25.42-6.38,24.26S175,373.34,179.7,373.69Z"/><path class="cls-70" d="M540.05,238.65l-.58,9.64,0,.08-.35.91c-13.78,11.08-27.42,12.17-37.63,11,.1-1.46.22-2.67.3-3.46,8,.62,15.63.54,17.55-1a13.87,13.87,0,0,0,2.86-3.91A37.11,37.11,0,0,0,540.05,238.65Z"/><path class="cls-71" d="M197.75,181.18c-24-21-56.95,3.87-62.95,30.87-1.74,7.31-3.42,18.55-4.83,29.64-2.25,17.72,53,12.31,53.68,12.87s3.69,8,11.64,10.93C223.13,246.44,218.27,200.77,197.75,181.18Z"/><polygon class="cls-38" points="389.35 444.21 343.26 447.36 294.33 450.71 278.8 422.18 272.83 411.21 345.83 405.71 389.35 444.21"/><polygon class="cls-72" points="390.81 441.32 344.72 444.47 295.79 447.82 280.26 419.29 274.29 408.32 347.29 402.82 390.81 441.32"/><path class="cls-73" d="M222.53,319.24l1.79,9.07,28.11-2.71,28.47-9.12-36.5-6.65s-20-36.55-28.34-49c-2.62-3.93-10.46-4.91-13.65-6.34Z"/><polygon class="cls-38" points="227.32 381.24 327.32 381.24 327.67 376.38 229.22 373.5 227.32 381.24"/><polygon class="cls-54" points="228.9 378.81 328.89 378.81 329.25 373.95 229.19 373.95 228.9 378.81"/><polygon class="cls-54" points="232.56 318.81 229.19 373.95 329.25 373.95 333.23 318.81 232.56 318.81"/><path class="cls-74" d="M215,351.11s-3.26,1.37-4.43,2.87l-1,12.45s7.75,4.29,13.56,5.95a62,62,0,0,0,11,1.59c4.7.36,10.82.76,10.6-1s-8.45-1.07-8.72-2.18,13-.72,13-2.8-13.43-.41-13.43-1.38S252,365.76,252,363.8c0-2.49-16.57-.73-16.19-2.35.22-1,15.22-.7,15.08-2.63s-8.3-1.11-13.28-1.53-10.1-2.49-10.85-4.7,11.13-4.84,9.88-6.51-21.66,5-21.66,5"/><path class="cls-75" d="M187.37,249.06A36.15,36.15,0,0,1,210.88,256a31.69,31.69,0,0,1,7.12,7.33c6.17,9,9.08,38.62,6.32,65l-57.08,11.43c3.76,1.54,35.42,10.26,48.65,10.77-7.47,4.16-5,17.44-5,17.44-31-.66-66.53-3.4-72.67-27.81-4.69-18.64-7.3-46.1-7.5-57.38-.28-15.27,7.56-23.53,15.4-27.46s25.64-5.46,25.64-5.46Z"/><path class="cls-76" d="M211.76,187c-.13,1.45-.31,2.89-.51,4.3-1.92-7.36-14.48-15.7-28.71-14.4,0,0,0,1.72-2.68,2.2s-3.86-2.86-4.46,0-.59,6.72-3.86,6.72-5.36,2.08-5.65,4.16,5.23,9.56,2.46,11.4c-3.17,2.1-5.46,10-5.46,10s-2.47-18.25-12.3-7.56c-.69,2-1.28,3.94-1.77,5.91-.46-2.86.28-5.09,1.86-6.51a6,6,0,0,1,1.49-1,50.93,50.93,0,0,1-2.38-15,34.61,34.61,0,0,1,1-8.66c3.89-15,23.34-19.4,36-18.53S213,173,211.76,187Z"/><path class="cls-77" d="M156.64,228.53a43.94,43.94,0,0,0,31.53,19l-.09-1.69-.1-2.08c-9-2.66-19.87-8.92-32.46-22a2.61,2.61,0,0,0,.27.31,45.33,45.33,0,0,1,.77,5.62C156.58,227.94,156.61,228.23,156.64,228.53Z"/><path class="cls-78" d="M157.19,207.84s-2.93-3.45-4.59-.53,1.62,7.45,1.62,7.45Z"/><path class="cls-48" d="M160.14,262.72s27.58,20,34.33,18.76,1.5-27,1.5-27"/><path class="cls-79" d="M231.3,241.36c2.84,6.18,1,14.56-2.91,19.08-3.46,4-2.76,8.79-5.6,11.25C217,262.88,211.84,255,202.7,251.48c16.32-17.92-6.54-50.27-8.23-56.8l-31.62,20.08s9.39,23.29-3.35,40.05c-2.69,3.54-14.44,26.13-26.63,20.34-7.27-3.46-2.51-10.52-4.24-12.43-5.93-6.55-12.37-13.49-9.34-18.89s1.88-2.84-1-6.14-1.58-8,.62-11-3-12,.16-15.5c6.8-7.48,5.29-15,4.47-17.62s1.61-5,3.53-6.33,2.47-4.7,2.11-10.08,4.29-7.31,5.67-8.7c3.58-3.63,3.39-5.28,4.37-9.19,1.75-7,13.2-7,19.75-7.1s4.65-9.31,19.87-5.63c2.43.59,5.72,5.74,13.82,4.06,8.54-1.76,18.22,6.39,17.65,10.45s10.64,4.33,11.47,17.08c0,.33.06.71.09,1.1a23.67,23.67,0,0,0,3.43,10.3,22,22,0,0,1,1.91,4c1.87,5.18-1.44,10.38,0,14.91s4,11.31,1.13,18C225,234.08,230,238.55,231.3,241.36Z"/><path class="cls-80" d="M212.46,223.87c-2.83,12.31-14.24,17.91-21.63,19.48-.71.14-1.38.25-2,.32-.3.05-.58.08-.85.1l.1,2.08.19,2.65.16,2.35,5.26,22.06a3.1,3.1,0,0,1-4.79,3.26c-10.55-7.36-29.19-17.64-29.4-21.36,0,0-1.09-5.67-2.58-22.91-.09-1.08-.18-2.2-.28-3.37,0-.3-.06-.59-.08-.87-.05-.58-.13-1.28-.21-2a25.94,25.94,0,0,0-.56-3.64,2.61,2.61,0,0,1-.27-.31c-4.13-4.66-6.2-8.75-6.7-12,.28-1.14.6-2.28,1-3.41a8.76,8.76,0,0,1,3.66-4.95c7.48-4.64,9.46,10,9.46,10s25.28-5.23,31.53-34.76a12.43,12.43,0,0,1,9.64,2.12c3,2.08,5.78,5.88,7.19,12.6h0c-.57,4-1.26,7.87-.93,11.5C210.75,207.78,214.45,215.29,212.46,223.87Z"/><path class="cls-81" d="M204.06,178.73c-3.88,10.1-10.05,19.51-22.26,26.46-13.49,7.68-18.91,6.18-18.91,6.18s25.28-5.23,31.53-34.76A12.43,12.43,0,0,1,204.06,178.73Z"/><path class="cls-82" d="M188.08,245.85l.19,2.65c-9.56-1.14-21-5.08-31.35-16.6-.09-1.08-.18-2.2-.28-3.37,0-.3-.06-.59-.08-.87-.05-.58-.13-1.28-.21-2,12.64,10.21,23.39,15.54,32.48,18-.3.05-.58.08-.85.1Z"/><ellipse class="cls-83" cx="90.13" cy="413.5" rx="30.01" ry="11.47"/><ellipse class="cls-84" cx="90.13" cy="409.36" rx="30.01" ry="11.47"/><polyline class="cls-85" points="90.13 409.36 66.26 368.69 91.71 325.6"/><path class="cls-86" d="M129.78,324.76,103.11,350,84.77,326.47a15.61,15.61,0,0,1,1.58-21h0a15.61,15.61,0,0,1,21-.39Z"/></g></g></g></svg>