<svg xmlns="http://www.w3.org/2000/svg" xmlns:xlink="http://www.w3.org/1999/xlink" viewBox="0 0 557 245.55"><defs><style>.cls-1{fill:url(#linear-gradient);}.cls-2{fill:url(#linear-gradient-2);}.cls-3{fill:url(#linear-gradient-3);}.cls-4{fill:url(#linear-gradient-4);}.cls-5{fill:url(#linear-gradient-5);}.cls-6{fill:url(#linear-gradient-6);}.cls-7{fill:url(#linear-gradient-7);}.cls-8{fill:url(#linear-gradient-8);}.cls-9{fill:url(#linear-gradient-9);}.cls-10{fill:url(#linear-gradient-10);}.cls-11{fill:url(#linear-gradient-11);}.cls-12{fill:url(#linear-gradient-12);}.cls-13{fill:#1b2f36;}.cls-14{opacity:0.7;}.cls-15{fill:#ed1c24;}.cls-16{opacity:0.5;}.cls-17{fill:url(#linear-gradient-13);}.cls-18{fill:url(#linear-gradient-14);}.cls-19{fill:url(#linear-gradient-15);}.cls-20{fill:url(#linear-gradient-16);}.cls-21{fill:url(#linear-gradient-17);}.cls-22{fill:url(#linear-gradient-18);}.cls-23{fill:url(#linear-gradient-19);}.cls-24{fill:url(#linear-gradient-20);}.cls-25{fill:url(#linear-gradient-21);}.cls-26{fill:url(#linear-gradient-22);}.cls-27{fill:url(#linear-gradient-23);}.cls-28{fill:url(#linear-gradient-24);}.cls-29{fill:url(#linear-gradient-25);}.cls-30{fill:url(#linear-gradient-26);}.cls-31{fill:url(#linear-gradient-27);}.cls-32{fill:url(#linear-gradient-28);}.cls-33{fill:url(#linear-gradient-29);}.cls-34{fill:url(#linear-gradient-30);}.cls-35{fill:url(#linear-gradient-31);}.cls-36{font-size:12px;fill:#fff;font-family:MyriadPro-Regular, Myriad Pro;}.cls-37{letter-spacing:-0.08em;}.cls-38{letter-spacing:-0.02em;}.cls-39{letter-spacing:0.03em;}.cls-40{letter-spacing:-0.01em;}.cls-41{letter-spacing:-0.01em;}.cls-42{fill:url(#linear-gradient-32);}.cls-43{fill:url(#linear-gradient-33);}.cls-44{fill:url(#linear-gradient-34);}.cls-45{fill:url(#linear-gradient-35);}.cls-46{fill:url(#linear-gradient-36);}.cls-47{fill:url(#linear-gradient-37);}.cls-48{fill:url(#linear-gradient-38);}.cls-49{fill:url(#linear-gradient-39);}.cls-50{fill:url(#linear-gradient-40);}.cls-51{fill:url(#linear-gradient-41);}.cls-52{fill:url(#linear-gradient-42);}.cls-53{fill:url(#linear-gradient-43);}.cls-54{fill:url(#linear-gradient-44);}.cls-55{fill:url(#linear-gradient-45);}.cls-56{fill:url(#linear-gradient-46);}.cls-57{fill:url(#linear-gradient-47);}.cls-58{fill:url(#linear-gradient-48);}.cls-59{fill:url(#linear-gradient-49);}.cls-60{fill:#c6976b;}</style><linearGradient id="linear-gradient" x1="442.67" y1="114.23" x2="443.53" y2="114.23" gradientUnits="userSpaceOnUse"><stop offset="0" stop-color="#ccd9dc"/><stop offset="0.11" stop-color="#dbe4e6"/><stop offset="0.36" stop-color="#f5f8f8"/><stop offset="0.5" stop-color="#fff"/><stop offset="0.99" stop-color="#ccd9dc"/></linearGradient><linearGradient id="linear-gradient-2" x1="475.23" y1="78.3" x2="484.25" y2="78.3" xlink:href="#linear-gradient"/><linearGradient id="linear-gradient-3" x1="486.31" y1="78.13" x2="493.25" y2="78.13" xlink:href="#linear-gradient"/><linearGradient id="linear-gradient-4" x1="495.31" y1="78.3" x2="502.24" y2="78.3" xlink:href="#linear-gradient"/><linearGradient id="linear-gradient-5" x1="504.3" y1="78.13" x2="511.23" y2="78.13" xlink:href="#linear-gradient"/><linearGradient id="linear-gradient-6" x1="513.29" y1="78.13" x2="520.22" y2="78.13" xlink:href="#linear-gradient"/><linearGradient id="linear-gradient-7" x1="522.28" y1="78.13" x2="528.07" y2="78.13" xlink:href="#linear-gradient"/><linearGradient id="linear-gradient-8" x1="530.13" y1="78.13" x2="537.06" y2="78.13" xlink:href="#linear-gradient"/><linearGradient id="linear-gradient-9" x1="451.87" y1="84.84" x2="464.9" y2="84.84" xlink:href="#linear-gradient"/><linearGradient id="linear-gradient-10" x1="460.58" y1="84.43" x2="465.24" y2="84.43" xlink:href="#linear-gradient"/><linearGradient id="linear-gradient-11" x1="462.91" y1="85.17" x2="469.69" y2="85.17" xlink:href="#linear-gradient"/><linearGradient id="linear-gradient-12" x1="466.78" y1="83.81" x2="476.07" y2="83.81" xlink:href="#linear-gradient"/><linearGradient id="linear-gradient-13" x1="53.83" y1="105.02" x2="63.4" y2="105.02" xlink:href="#linear-gradient"/><linearGradient id="linear-gradient-14" x1="82.84" y1="144.66" x2="85.3" y2="144.66" xlink:href="#linear-gradient"/><linearGradient id="linear-gradient-15" x1="86.25" y1="144.67" x2="90.43" y2="144.67" xlink:href="#linear-gradient"/><linearGradient id="linear-gradient-16" x1="91.57" y1="144.66" x2="94.11" y2="144.66" xlink:href="#linear-gradient"/><linearGradient id="linear-gradient-17" x1="95.14" y1="144.66" x2="97.69" y2="144.66" xlink:href="#linear-gradient"/><linearGradient id="linear-gradient-18" x1="98.18" y1="144.67" x2="102.36" y2="144.67" xlink:href="#linear-gradient"/><linearGradient id="linear-gradient-19" x1="103.09" y1="144.66" x2="108.67" y2="144.66" xlink:href="#linear-gradient"/><linearGradient id="linear-gradient-20" x1="111.42" y1="144.7" x2="114.79" y2="144.7" xlink:href="#linear-gradient"/><linearGradient id="linear-gradient-21" x1="115.96" y1="144.66" x2="118.73" y2="144.66" xlink:href="#linear-gradient"/><linearGradient id="linear-gradient-22" x1="119.77" y1="144.7" x2="120.57" y2="144.7" xlink:href="#linear-gradient"/><linearGradient id="linear-gradient-23" x1="93.9" y1="138.63" x2="105.77" y2="138.63" xlink:href="#linear-gradient"/><linearGradient id="linear-gradient-24" x1="93.9" y1="165.19" x2="105.77" y2="165.19" xlink:href="#linear-gradient"/><linearGradient id="linear-gradient-25" x1="130.99" y1="151.32" x2="139.42" y2="151.32" xlink:href="#linear-gradient"/><linearGradient id="linear-gradient-26" x1="93.05" y1="151.15" x2="126.78" y2="151.15" xlink:href="#linear-gradient"/><linearGradient id="linear-gradient-27" x1="86.02" y1="151.18" x2="89.54" y2="151.18" xlink:href="#linear-gradient"/><linearGradient id="linear-gradient-28" x1="72.75" y1="151.31" x2="81.86" y2="151.31" xlink:href="#linear-gradient"/><linearGradient id="linear-gradient-29" x1="60.25" y1="151.38" x2="68.99" y2="151.38" xlink:href="#linear-gradient"/><linearGradient id="linear-gradient-30" x1="32.43" y1="97.62" x2="173.39" y2="97.62" xlink:href="#linear-gradient"/><linearGradient id="linear-gradient-31" x1="32.43" y1="157.12" x2="173.39" y2="157.12" xlink:href="#linear-gradient"/><linearGradient id="linear-gradient-32" x1="196.3" y1="114.23" x2="197.16" y2="114.23" xlink:href="#linear-gradient"/><linearGradient id="linear-gradient-33" x1="228.32" y1="84.58" x2="405.86" y2="84.58" xlink:href="#linear-gradient"/><linearGradient id="linear-gradient-34" x1="228.32" y1="105.41" x2="405.86" y2="105.41" xlink:href="#linear-gradient"/><linearGradient id="linear-gradient-35" x1="228.32" y1="126.24" x2="405.86" y2="126.24" xlink:href="#linear-gradient"/><linearGradient id="linear-gradient-36" x1="228.32" y1="147.08" x2="405.86" y2="147.08" xlink:href="#linear-gradient"/><linearGradient id="linear-gradient-37" x1="228.32" y1="167.91" x2="405.86" y2="167.91" xlink:href="#linear-gradient"/><linearGradient id="linear-gradient-38" x1="273.47" y1="63.96" x2="280.61" y2="63.96" xlink:href="#linear-gradient"/><linearGradient id="linear-gradient-39" x1="281.4" y1="63.95" x2="288.08" y2="63.95" xlink:href="#linear-gradient"/><linearGradient id="linear-gradient-40" x1="290.11" y1="64" x2="296.8" y2="64" xlink:href="#linear-gradient"/><linearGradient id="linear-gradient-41" x1="299.03" y1="63.95" x2="305.97" y2="63.95" xlink:href="#linear-gradient"/><linearGradient id="linear-gradient-42" x1="308.75" y1="63.96" x2="315.47" y2="63.96" xlink:href="#linear-gradient"/><linearGradient id="linear-gradient-43" x1="316.51" y1="63.96" x2="322.63" y2="63.96" xlink:href="#linear-gradient"/><linearGradient id="linear-gradient-44" x1="323.48" y1="63.96" x2="330.82" y2="63.96" xlink:href="#linear-gradient"/><linearGradient id="linear-gradient-45" x1="330.82" y1="63.96" x2="337.54" y2="63.96" xlink:href="#linear-gradient"/><linearGradient id="linear-gradient-46" x1="340.88" y1="63.96" x2="347.62" y2="63.96" xlink:href="#linear-gradient"/><linearGradient id="linear-gradient-47" x1="349.98" y1="63.96" x2="356.09" y2="63.96" xlink:href="#linear-gradient"/><linearGradient id="linear-gradient-48" x1="357.99" y1="63.95" x2="364.93" y2="63.95" xlink:href="#linear-gradient"/><linearGradient id="linear-gradient-49" x1="366.73" y1="63.96" x2="372.84" y2="63.96" xlink:href="#linear-gradient"/></defs><g id="Layer_2" data-name="Layer 2"><g id="Layer_1-2" data-name="Layer 1"><rect class="cls-1" x="442.67" y="34.09" width="0.86" height="160.28"/><path class="cls-2" d="M484.25,69.88l-4.51,16.84-4.51-16.84h2.4l2.11,7.91,2.13-7.91Z"/><path class="cls-3" d="M486.31,73.19a3.57,3.57,0,0,1,1-2.57,3.34,3.34,0,0,1,4.9,0,3.57,3.57,0,0,1,1,2.57v9.89a3.59,3.59,0,0,1-1,2.57,3.34,3.34,0,0,1-4.9,0,3.59,3.59,0,0,1-1-2.57Zm2.32,0v9.89A1.39,1.39,0,0,0,489,84a1.06,1.06,0,0,0,1.64,0,1.39,1.39,0,0,0,.33-.93V73.19a1.37,1.37,0,0,0-.33-.93,1.06,1.06,0,0,0-1.64,0A1.37,1.37,0,0,0,488.63,73.19Z"/><path class="cls-4" d="M495.31,69.88h2.31v13.2A1.35,1.35,0,0,0,498,84a1,1,0,0,0,.81.39,1,1,0,0,0,.82-.39,1.39,1.39,0,0,0,.33-.93V69.88h2.32v13.2a3.62,3.62,0,0,1-1,2.57,3.29,3.29,0,0,1-2.46,1.07,3.25,3.25,0,0,1-2.45-1.07,3.58,3.58,0,0,1-1-2.57Z"/><path class="cls-5" d="M504.3,73.19a3.6,3.6,0,0,1,1-2.57,3.35,3.35,0,0,1,4.91,0,3.6,3.6,0,0,1,1,2.57V74.5h-2.31V73.19a1.38,1.38,0,0,0-.34-.93,1,1,0,0,0-1.63,0,1.38,1.38,0,0,0-.34.93v9.89A1.4,1.4,0,0,0,507,84a1,1,0,0,0,1.63,0,1.4,1.4,0,0,0,.34-.93V81.77h2.31v1.31a3.62,3.62,0,0,1-1,2.57,3.35,3.35,0,0,1-4.91,0,3.62,3.62,0,0,1-1-2.57Z"/><path class="cls-6" d="M517.91,69.88h2.31V86.39h-2.31V76.81h-2.3v9.58h-2.32V69.88h2.32V74.5h2.3Z"/><path class="cls-7" d="M528.07,84.07v2.32h-5.79V69.88h4.64V72.2H524.6v2.3h3.47v2.31H524.6v7.26Z"/><path class="cls-8" d="M533.71,69.88A3.25,3.25,0,0,1,536.08,71a3.58,3.58,0,0,1,1,2.53v6.93A3.58,3.58,0,0,1,536,83.08l1.08,3.31h-2.44l-.74-2.33h-1.44v2.32h-2.31V69.88h3.58Zm-1.27,2.32v9.57h1.15a1.06,1.06,0,0,0,.82-.39,1.39,1.39,0,0,0,.33-.93V73.52a1.4,1.4,0,0,0-.33-.94,1.08,1.08,0,0,0-.82-.38Z"/><path class="cls-9" d="M453.21,90.78a1.89,1.89,0,0,1-1.15-.75,1.16,1.16,0,0,1-.06-1.18,1.45,1.45,0,0,1,.63-.71c.29-.17.83-.43,1.63-.79.11-.06.19,0,.22.07s0,.15-.12.16a.67.67,0,0,0-.57.74,1.57,1.57,0,0,0,.49,1.09,1.84,1.84,0,0,0,1.38.48,3,3,0,0,0,1.85-.74,5.89,5.89,0,0,0,1.66-2.2,5.42,5.42,0,0,0,.48-2.32c0-.27-.09-.37-.13-.32l-.16.2A6.79,6.79,0,0,1,458,85.78a6.37,6.37,0,0,1-1.63.87,3.14,3.14,0,0,1-1.83.14,1.6,1.6,0,0,1-1-.79,2.82,2.82,0,0,1,.4-3,9.2,9.2,0,0,1,2.94-2.8A9,9,0,0,1,461,78.87a2.91,2.91,0,0,1,1.44.21.23.23,0,0,0,.21,0,4.4,4.4,0,0,1,1.84-.28c.5.06.59.32.26.77l-.42.54c-.08.1-.12.09-.12,0s-.12-.33-.35-.46a1.68,1.68,0,0,0-.85-.16c-.07,0-.09,0-.07.06a1.18,1.18,0,0,1-.09,1,4.1,4.1,0,0,1-.83,1.17,7.73,7.73,0,0,1-1.18.94,3.57,3.57,0,0,1-1.28.51.84.84,0,0,1-1.05-.46q-.27-.62.51-1.5a5.82,5.82,0,0,1,1.7-1.26s.05-.08,0-.16c-.23-.36-.69-.49-1.36-.39a5,5,0,0,0-2.22,1.06,4.81,4.81,0,0,0-1.32,1.55,4.28,4.28,0,0,0-.53,1.73,1.79,1.79,0,0,0,.37,1.32,1.41,1.41,0,0,0,1.42.32,4.18,4.18,0,0,0,1.28-.49,2.89,2.89,0,0,0,1-.92c.05-.07.09-.12.12-.12a5,5,0,0,0,1.47-.63c.53-.32.79-.4.76-.24a7.38,7.38,0,0,1-1.31,3.43,11.89,11.89,0,0,1-2.83,3.06,6.45,6.45,0,0,1-2.41,1.22A4.09,4.09,0,0,1,453.21,90.78Zm6.59-8a2,2,0,0,0,.8-.86,2.31,2.31,0,0,0,.27-1.54c0-.06-.06-.08-.1,0a3.81,3.81,0,0,0-.85.69,3.75,3.75,0,0,0-.46.61c-.3.53-.4.89-.29,1.09S459.49,83,459.8,82.82Z"/><path class="cls-10" d="M460.59,86.54a.55.55,0,0,1,.38-.36,1,1,0,0,0,.82-.42,1.47,1.47,0,0,0,.36-.53,3.63,3.63,0,0,1,.24-.56c.08-.16.16-.29.21-.39a1.85,1.85,0,0,1,.93-.56c.5-.17.8-.2.89-.08s0,.07-.06.11a1.26,1.26,0,0,0-.17.13,2.66,2.66,0,0,0-.44.64,2.47,2.47,0,0,0-.25.77,1,1,0,0,0,0,.51c.05.1.17.12.35.06s.43-.32.85-.84c.08-.08.13-.09.15,0s-.12.31-.43.71a12.76,12.76,0,0,1-.93,1.05,1.41,1.41,0,0,1-1,.45.56.56,0,0,1-.59-.6,5.35,5.35,0,0,1,0-.58c0-.08,0-.09-.07,0a2.2,2.2,0,0,1-1,.74C460.63,86.76,460.55,86.7,460.59,86.54Zm3-3.31c-.28,0-.35-.14-.23-.35a2.5,2.5,0,0,1,.6-.65,3.69,3.69,0,0,1,1-.56c.29-.09.39.06.29.45a1.26,1.26,0,0,1-.74.87,3.11,3.11,0,0,1-.43.18A1,1,0,0,1,463.56,83.23Z"/><path class="cls-11" d="M463,90.28a4.86,4.86,0,0,1,.08-.6,8.29,8.29,0,0,1,.25-.84l.34-1c.12-.34.25-.68.38-1s.29-.69.45-1c0,0,0-.06,0-.07s0,0-.05,0a4.25,4.25,0,0,1-.77.77,1,1,0,0,1-.59.25c-.18,0-.23-.07-.17-.23a.58.58,0,0,1,.3-.33,2.08,2.08,0,0,0,1-.63,7.6,7.6,0,0,0,.88-1.3c0-.08,0-.13,0-.13h-.32c-.08,0-.08,0,0-.17a2.2,2.2,0,0,1,.4-.36,1.23,1.23,0,0,0,.35-.33q.25-.55.6-1.38a4.49,4.49,0,0,1,.57-1.06,1.89,1.89,0,0,1,.59-.36l1-.39c.34-.12.65-.22.93-.29s.44-.1.48-.07,0,.06-.07.1l-.16.11a5.75,5.75,0,0,0-1.1,1.14A17.25,17.25,0,0,0,467,83c-.06.08,0,.12.08.12l1,0q.5,0,.93,0l.43,0c.18,0,.09.07-.27.23a5.53,5.53,0,0,0-.77.45,2.48,2.48,0,0,1-1.22.42c-.05,0,0,0,0,.15a2,2,0,0,1,.29,1.49,4.16,4.16,0,0,1-.47,1.39,9,9,0,0,1-.89,1.35,8.23,8.23,0,0,1-1.5,1.46,2.37,2.37,0,0,1-1.28.59C463.14,90.6,463,90.49,463,90.28Zm2-1.84c.13.16.36.1.71-.16a3.74,3.74,0,0,0,.91-1.12,3.48,3.48,0,0,0,.39-1,2.16,2.16,0,0,0,0-1,1,1,0,0,0-.71-.77c-.05,0-.1,0-.15.11-.19.35-.37.74-.55,1.15a12.88,12.88,0,0,0-.47,1.26,6.29,6.29,0,0,0-.22.88A1,1,0,0,0,465,88.44Z"/><path class="cls-12" d="M467,86.78c-.21,0-.29,0-.24-.2a.55.55,0,0,1,.38-.36.72.72,0,0,0,.54-.21,3.63,3.63,0,0,0,.56-.6,6.11,6.11,0,0,0,.73-1.2c.14-.31.28-.61.43-.91s.32-.65.54-1q0-.09-.06-.09h-.37c-.17,0-.2-.05-.1-.13a1.81,1.81,0,0,0,.22-.2.91.91,0,0,1,.48-.17c.06,0,.1,0,.11-.08a.68.68,0,0,1,.29-.32,8.65,8.65,0,0,1,1.43-.59c.64-.2,1-.28,1-.23s0,0-.06.1l-.16.11c-.18.15-.34.27-.45.38a2.16,2.16,0,0,0-.32.4c-.06.08,0,.12,0,.11,1.22-.09,2.14-.17,2.76-.23l1.19-.13c.06,0,.09,0,.09,0s0,.07-.09.12a2.17,2.17,0,0,1-1,.71,7.66,7.66,0,0,1-1.74.13H471.7a.21.21,0,0,0-.2.12c-.24.4-.46.79-.65,1.17a10.69,10.69,0,0,0-.45,1,2.12,2.12,0,0,0-.22,1c0,.23.13.36.28.41s.62-.18,1-.78c.08-.1.12-.13.15-.06a.47.47,0,0,1-.1.29,5.92,5.92,0,0,1-.71,1A4.37,4.37,0,0,1,470,87a1.26,1.26,0,0,1-.87.21c-.27,0-.42-.23-.47-.64a3.26,3.26,0,0,1,.1-1.21c0-.13,0-.15-.07,0a10.34,10.34,0,0,1-.85,1A1.67,1.67,0,0,1,467,86.78Z"/><rect class="cls-13" x="157.25" y="-155.15" width="244.51" height="554.88" transform="translate(401.79 -157.21) rotate(90)"/><g class="cls-14"><path class="cls-15" d="M1.7,99.77c12.63-.23,23.52,1.75,32.37,5.9a44.25,44.25,0,0,1,17.23,14,44.73,44.73,0,0,1,6.83,14.18,36.16,36.16,0,0,1,1.22,6.41,24.37,24.37,0,0,1,14.9,5.68c3.38,2.83,6.25,7.72,8.53,12.52a51.6,51.6,0,0,1,4.73,17.32H187.74l0-1,24.58,70.05L276,175.77H406.51c13.4,0,19.92-10.67,23-18.76a61.76,61.76,0,0,0,3.58-18.46v-.78h.09c18.79,0,27.76-12,32-22.19A65.93,65.93,0,0,0,470,93.41v-.1l.19,0L557,78.83V79L470.38,93.43a68.33,68.33,0,0,1-4.86,22.39,38.84,38.84,0,0,1-11.06,15.46c-5.73,4.64-12.84,7-21.15,7A59.49,59.49,0,0,1,429.72,156c-2,5.18-4.68,10.25-8,13.21-4.14,3.71-9.27,6.52-15.23,6.52H276.07l-63.8,69.78L187.6,175.77H87.34v-1A56.5,56.5,0,0,0,82.61,158c-3.56-7.49-10.51-16.77-23.36-17.3l-.08-.12v-.14A33.62,33.62,0,0,0,58,133.91a44.49,44.49,0,0,0-6.81-14.14C44.33,110.44,30.23,99.43,1.71,100Z"/><path class="cls-15" d="M1.7,106.61c12-.22,22.68,1.67,31.64,5.62a50.8,50.8,0,0,1,18.18,13.32,49.88,49.88,0,0,1,8.28,13.5,36.45,36.45,0,0,1,2,6.11,27.65,27.65,0,0,1,16.12,6.14,31.28,31.28,0,0,1,9.21,12.06,89.77,89.77,0,0,1,4.38,13.12l87.23-3.71h0l12.69.53,0,0,26.3,70.94,63.09-65.45H408.43c12.76,0,19.32-10,22.58-17.72a60.36,60.36,0,0,0,4.06-17.57v-.71h.09c17.89,0,27-11.38,31.42-21.12A65.88,65.88,0,0,0,472,100.39h.08l84.75-13.74,0,.18L472.2,100.58a66.55,66.55,0,0,1-5.45,21.35,39.15,39.15,0,0,1-11.1,14.74,32.2,32.2,0,0,1-20.4,6.71,58.53,58.53,0,0,1-4.07,16.92c-2.08,4.94-4.79,9.6-8.05,12.43-4.07,3.53-9,6-14.7,6H280.88l-63.24,65.67,0-.5-26.34-70.43-12.56-.75-87.37,3.81v-.1a91.07,91.07,0,0,0-4.39-13c-3.38-8-12-17.55-25.24-18.09H61.6v-.07a35.59,35.59,0,0,0-2-6.15,49.72,49.72,0,0,0-8.26-13.46c-7.66-8.88-22.5-19.37-49.66-18.86Z"/><path class="cls-15" d="M1.7,113.45c11.43-.21,21.82,1.58,30.9,5.33a59.26,59.26,0,0,1,19.14,12.65,53.41,53.41,0,0,1,12.43,18.64,31.43,31.43,0,0,1,16.47,5.83c4.56,3.2,8.17,7.37,9.9,11.46,2.68,6.36,4.64,10.78,4.89,11.36l87-7.95h0L195,172.29l28,71.63,62.53-62.15H410.35c12.12,0,18.72-9.47,22.13-16.78A57.27,57.27,0,0,0,437,148.4v-.63h.09c17,0,26.09-10.83,30.74-20.05a64.35,64.35,0,0,0,6.06-20v.09H474L556.85,94.6l0,.13-82.79,13A65,65,0,0,1,468,128a39.49,39.49,0,0,1-11.17,14,31.85,31.85,0,0,1-19.66,6.35,56.25,56.25,0,0,1-4.54,16c-2.18,4.68-4.91,9.08-8.12,11.75-4,3.35-8.78,5.72-14.18,5.72H285.69l-62.67,62H223L194.9,172.83l-12.43-1.34-87.16,7.68,0-.08-4.91-11.66c-3.4-8.05-14.16-16.69-26.27-17.19H64l0-.06a52.77,52.77,0,0,0-12.42-18.63c-8.51-8.44-24.07-18.4-49.88-17.92Z"/><path class="cls-15" d="M1.7,120.24a79.14,79.14,0,0,1,30.18,5.06,69.45,69.45,0,0,1,20.1,12,63.43,63.43,0,0,1,14.64,17.64,36,36,0,0,1,16.79,5.53c5.17,3.18,9,7.15,10.61,10.88a59.82,59.82,0,0,0,5.39,10.18L186.25,170h0l12.44,1.92,0,.07,29.72,71.88,61.93-59H412.27c11.45,0,18.09-8.89,21.63-15.79a56.48,56.48,0,0,0,5-16.13v-1.08h.12c16.09,0,25.2-9.76,30-18.48a63.66,63.66,0,0,0,6.68-18.82v.06l.1.06,81-12.34,0,.28L476,114.91a64.18,64.18,0,0,1-6.7,19.12,40.21,40.21,0,0,1-11.23,13.23,31.48,31.48,0,0,1-18.92,6,55.61,55.61,0,0,1-5,15.13c-2.28,4.43-5,8.5-8.2,11-4,3.17-8.57,5.32-13.69,5.32H290.52l-62.15,59.4-.08-.46-29.77-71.47-12.27-2-87,11.56,0-.09a60.32,60.32,0,0,1-5.46-10.3c-1.55-3.69-5.38-7.61-10.5-10.76a35.51,35.51,0,0,0-16.74-5.49h-.09l0-.07a62.68,62.68,0,0,0-14.61-17.64c-9.36-8-25.65-17.43-50.08-17Z"/><path class="cls-15" d="M1.7,127.08a81.94,81.94,0,0,1,29.45,4.78A82.49,82.49,0,0,1,52.2,143.18,77.49,77.49,0,0,1,69,159.85a41.68,41.68,0,0,1,17.14,5.22c5.73,3.11,9.85,6.86,11.29,10.28a25,25,0,0,0,5.89,8.8L190,168.73h0l12.31,2.58,0,.06,31.44,72.79,61.38-55.4h119c10.82,0,17.49-8.73,21.19-15.27a54.55,54.55,0,0,0,5.48-15l0-.75H441c15.19,0,24.34-9.65,29.34-17.89a64.35,64.35,0,0,0,7.31-18.11h0l.09,0,79.08-11.68,0,.27-79,11.68a63.78,63.78,0,0,1-7.31,18.09,41.26,41.26,0,0,1-11.3,12.51,31.1,31.1,0,0,1-18.17,5.7,55.22,55.22,0,0,1-5.5,14.32c-2.37,4.19-5.15,8.35-8.26,10.75-3.9,3-8.33,5.34-13.17,5.34H295.33L233.74,244.5l-.07-.59-31.5-72.16L190,169.1l-86.76,15.39,0-.07a25,25,0,0,1-6-9c-1.42-3.37-5.49-7.07-11.17-10.16a41.25,41.25,0,0,0-17.09-5.19h-.07l0-.06A76.77,76.77,0,0,0,52,143.38a81.4,81.4,0,0,0-50.31-16Z"/><path class="cls-15" d="M1.7,133.92a85.1,85.1,0,0,1,28.71,4.5,99.31,99.31,0,0,1,22,10.65,98.27,98.27,0,0,1,19,15.69c5,.22,11.51,2.05,17.48,4.91,6.29,3,10.66,6.55,12,9.69a14.48,14.48,0,0,0,6.4,7.43l86.52-19.27,12.2,3.25,0,0L239.21,244,300,191.77H416.1c10.19,0,16.9-8.07,20.75-14.23a54.31,54.31,0,0,0,6-13.6l0-.17H443c14.29,0,23.47-10.12,28.66-17.89,5.63-8.44,7.91-17.11,7.93-18.11h0l.09.6,77.2-10.71,0,.42-77.1,11.06a64.45,64.45,0,0,1-7.94,17.09,42.49,42.49,0,0,1-11.36,11.82,30.8,30.8,0,0,1-17.43,5.37,55.62,55.62,0,0,1-6,13.51c-2.47,4-5.27,7.71-8.33,10-3.84,2.83-8.1,4.87-12.66,4.87h-116l-61,52.56-.07-.47-33.22-72.72-12-3.28L107.27,187.1l0,0s-4.17-1.88-6.58-7.59c-1.31-3.09-5.63-6.57-11.86-9.56-6-2.85-12.47-4.68-17.42-4.89H71.3l0-.05a97.68,97.68,0,0,0-19-15.69c-11.06-7.11-28.81-15.5-50.54-15.09Z"/><path class="cls-15" d="M1.7,140.76a88.9,88.9,0,0,1,28,4.21,120.22,120.22,0,0,1,23,10,126.69,126.69,0,0,1,21.22,14.71c4.77.21,11.59,2,17.82,4.6,6.84,2.89,11.46,6.2,12.67,9.09a9.94,9.94,0,0,0,6.91,6l86.35-23.15,0,0,12,3.86,0,.05,34.89,73.69,60.26-49.1H418c9.55,0,16.31-7.54,20.3-13.29a58,58,0,0,0,6.44-12.12l0,.41h.11c13.39,0,22.61-9.51,28-16.77a63.58,63.58,0,0,0,8.54-16.36l0-.29.08-.12,75.31-10.37,0,.23-75.22,10.29a65.13,65.13,0,0,1-8.55,15.93,44.32,44.32,0,0,1-11.42,11,30.65,30.65,0,0,1-16.7,5,55.94,55.94,0,0,1-6.45,12.61c-2.56,3.68-5.38,7.18-8.4,9.29-3.77,2.65-7.85,4.54-12.13,4.54H305l-60.46,49.4-35-73.55-11.88-4-86.32,23.07,0,0a9.13,9.13,0,0,1-2.72-1.08,10.68,10.68,0,0,1-4.42-5.16c-1.19-2.82-5.76-6.08-12.53-8.94-6.13-2.59-13.11-4.4-17.77-4.59h-.05l0,0a127.27,127.27,0,0,0-21.21-14.71C40.57,148.51,22.08,140.65,1.71,141Z"/><path class="cls-15" d="M1.7,147.56A93.13,93.13,0,0,1,29,151.49a148.46,148.46,0,0,1,23.91,9.32,170.19,170.19,0,0,1,23.41,13.73c4.5.2,11.78,1.92,18.16,4.3a50.9,50.9,0,0,1,8.62,4c2.57,1.56,4.17,3.07,4.77,4.49,2,4.68,7,4.66,7.37,4.65l86.18-27,.06,0,11.92,4.54L250,243.67l59.66-45.9h110.3c8.89,0,15.68-6.84,19.81-12.23a71.45,71.45,0,0,0,6.92-10.75l0,1h.13c12.49,0,21.72-9.4,27.27-16.2A63.65,63.65,0,0,0,483.28,144l0-.43.11-.17,73.41-9.71.06.31-73.32,9.59a67.53,67.53,0,0,1-9.17,14.91,46.15,46.15,0,0,1-11.49,10.32A30.47,30.47,0,0,1,447,173.52a57.63,57.63,0,0,1-6.92,11.8,37.66,37.66,0,0,1-8.47,8.46,21.07,21.07,0,0,1-11.64,4H309.78l-59.94,46.28-.1-.33-36.66-73.81-11.72-3.79-86.1,27.65h0c-.06,0-1.42-.65-3.07-1.21a8.49,8.49,0,0,1-4.69-4.72c-1.08-2.57-5.88-5.78-13.18-8.5C87.93,177,80.66,175.16,76.21,175l-.06,0-.05-.05a167.72,167.72,0,0,0-23.4-13.75c-12.77-6.22-32-13.57-51-13.21Z"/><path class="cls-15" d="M1.7,154.4a98.35,98.35,0,0,1,26.52,3.65,183.4,183.4,0,0,1,24.87,8.65A229,229,0,0,1,78.7,179.45c4.3.19,11.89,1.82,18.49,4,4.66,1.52,12.68,4.58,14.08,7.91a5.52,5.52,0,0,0,4.64,3.33,10.42,10.42,0,0,0,3.24-.06l86-30.88.07,0L217,168.93l0,.06,38.32,74.52,59.11-42.74h107.4c8.26,0,15.09-6.31,19.37-11.29a69.72,69.72,0,0,0,7.39-10.27l.05.56h.12c11.59,0,20.87-8.35,26.6-14.64a65.58,65.58,0,0,0,9.78-14.23l.05-.3.1-.12,71.53-9,0,.32-71.44,8.91a69.64,69.64,0,0,1-9.79,13.79,48.86,48.86,0,0,1-11.55,9.55,30.38,30.38,0,0,1-15.21,4.35,60.23,60.23,0,0,1-7.39,10.91,39.67,39.67,0,0,1-8.55,7.79,21.08,21.08,0,0,1-11.11,3.66H314.58l-59.37,43.11L216.73,169.3l-11.59-5.12L119.25,195h0a10.54,10.54,0,0,1-3.38.06,5.91,5.91,0,0,1-4.93-3.55c-1-2.33-6-5.16-13.86-7.72-6.6-2.16-14.18-4-18.44-4h-.09A231.64,231.64,0,0,0,52.93,167c-13.62-5.78-33.57-12.59-51.22-12.27Z"/><path class="cls-15" d="M1.7,161.24c7.23-.14,15.9,1,25.78,3.37a231.54,231.54,0,0,1,25.82,8c15.29,5.63,27.07,11.4,27.81,11.77,4.11.18,12,1.72,18.83,3.68,5,1.43,13.49,4.28,14.77,7.32.72,1.7,2.34,2.55,4.82,2.5a14.21,14.21,0,0,0,3.58-.6l85.83-34.73.08,0,11.64,5.82,40.06,75,58.55-39.59H423.78c7.62,0,14.49-5.65,18.92-10.25a85.65,85.65,0,0,0,7.88-9.4l.05.65h.11c10.7,0,20-7.75,25.92-13.56A70,70,0,0,0,487.07,158l.05-.28.09-.12,69.64-8.3,0,.33-69.56,8.22a75.69,75.69,0,0,1-10.41,12.76,53,53,0,0,1-11.6,8.83,30.49,30.49,0,0,1-14.48,4,64.75,64.75,0,0,1-7.87,10.1c-2.85,3-5.74,5.8-8.61,7.5-3.6,2.12-7.16,3.68-10.59,3.68H319.39l-58.8,39.44-40.21-75.32L208.92,163l-85.68,34.61v0a14.17,14.17,0,0,1-3.69.61c-2.61.05-4.4-.9-5.17-2.73-.9-2.12-6.19-4.72-14.53-7.11-6.81-2-14.71-3.51-18.79-3.68h0l0,0c-.12-.06-12.12-6-27.82-11.77C38.68,167.58,18,161.28,1.71,161.59Z"/><path class="cls-15" d="M1.7,168.07c6.62-.12,15.05.92,25.05,3.09,8,1.74,17,4.2,26.77,7.32,16.24,5.18,29.27,10.5,30,10.8a120.21,120.21,0,0,1,19.17,3.37c5.27,1.32,14.29,4,15.45,6.72a2.74,2.74,0,0,0,1.63,1.53c2.68,1,7.24-1,7.29-1l85.65-38.59,11.59,6.52,0,0,41.77,75.34,58-36.44H425.7c7,0,13.9-5,18.47-9.22a79.67,79.67,0,0,0,8.36-9l.06.23h.1c9.81,0,19.14-6.65,25.25-12a81.54,81.54,0,0,0,11-11.88l0-.14.09-.05,67.75-7.58,0,.34L489.22,165a84.31,84.31,0,0,1-11,11.73,58.41,58.41,0,0,1-11.66,8.11,30.6,30.6,0,0,1-13.75,3.7,70.33,70.33,0,0,1-8.34,9.29,43.58,43.58,0,0,1-8.68,6.22,20.55,20.55,0,0,1-10.06,2.7H324.2L266,243.55l-.1-.06L224,168l-11.33-6.34L127.23,200.2c-.2.09-4.76,2.08-7.59,1a3,3,0,0,1-1.83-1.73c-.82-1.94-6.22-3.67-15.21-5.93a94,94,0,0,0-19.12-2.79h0l0-.58c-.13-.06-13.39-5.78-30-11.09-15.34-4.89-36.75-10.81-51.69-10.53Z"/><path class="cls-15" d="M1.7,174.87c6-.11,14.2.83,24.32,2.81,8.08,1.58,17.41,3.82,27.73,6.65C70.9,189,85.17,193.88,86,194.14a149.74,149.74,0,0,1,19.5,3.07c6.82,1.49,15.17,3.76,16.18,6.15a1.91,1.91,0,0,0,1.22,1.1c2.68.9,8.09-1.94,8.14-2L216.5,160,228,167.21l0,0,43.47,76.26,57.4-32.75h98.73c6.33,0,13.28-4.89,18-8.74,5.13-4.18,8.8-7.78,8.83-7.82l.07.56h.11c8.91,0,18.27-6.59,24.55-11.44a81.78,81.78,0,0,0,11.65-11.08l.06-.27.09-.11L556.85,165l0,.41-65.78,6.86a97.2,97.2,0,0,1-11.64,10.65,65,65,0,0,1-11.73,7.38,31.12,31.12,0,0,1-13,3.36,79.57,79.57,0,0,1-8.81,8.44,51.56,51.56,0,0,1-8.75,6,21.7,21.7,0,0,1-9.56,2.76H329l-57.71,33.15-.12-.25-43.55-76.13-11.16-7-85.26,42.34c-.22.12-5.64,3-8.51,2a2.34,2.34,0,0,1-1.5-1.36c-.72-1.7-6.5-3.84-15.86-5.88a149.62,149.62,0,0,0-19.45-3.06h-.07c-.14,0-14.66-5-32.21-9.82-16.19-4.44-38.34-9.69-51.91-9.44Z"/><path class="cls-15" d="M1.7,181.71c12.27-.23,35.19,4.5,52.26,8.51,18.12,4.26,33.66,8.62,34.41,8.83a193.3,193.3,0,0,1,19.84,2.76,109.78,109.78,0,0,1,11.16,2.58c3.44,1,5.31,2,5.71,3a1.35,1.35,0,0,0,.9.79c2.62.79,8.92-3,9-3h0l85.31-46.35,11.36,7.82,0,.05,45.19,76.25,56.85-30.1h95.83c5.7,0,12.69-3.86,17.56-7.3,5.29-3.74,9.28-7.06,9.32-7.1l.06.4h.1c8,0,17.41-5.53,23.88-9.88a103,103,0,0,0,12.28-9.73l.05-.14.08-.05,64-6.21,0,.42L493,179.36a114.24,114.24,0,0,1-12.26,9.54A74.81,74.81,0,0,1,469,195.5a32,32,0,0,1-12.27,3,95.41,95.41,0,0,1-9.3,7.55,59.29,59.29,0,0,1-8.81,5.28,22.29,22.29,0,0,1-9,2.43H333.83l-57.15,30-.11-.21-45.28-76.65-11-7.61-85,46.2c-.34.21-6.57,3.93-9.37,3.08a1.8,1.8,0,0,1-1.19-1c-.64-1.5-6.66-3.29-16.53-5.14a155.38,155.38,0,0,0-19.8-2.61h0l0-.15c-.16,0-16-4.56-34.42-8.9-17-4-39.92-8.76-52.14-8.54Z"/><path class="cls-15" d="M1.7,188.55c10.91-.2,34.56,4,52.48,7.56,19.08,3.8,35.89,7.69,36.61,7.86,2.69.11,11.85,1.12,20.17,2.45,11,1.76,16.92,3.42,17.56,4.94a.93.93,0,0,0,.64.54c2.48.69,9.69-4.11,9.77-4.16h0l85.12-50.21.13.1L235.3,166l0,0,46.92,77.16,56.29-26.45h92.93c4,0,9.93-2.37,17.13-6.78,5.45-3.34,9.75-6.43,9.79-6.46l.06.24h.09c7.12,0,16.55-4.94,23.22-8.81a125.94,125.94,0,0,0,12.89-8.68l.06-.12.07,0,62.09-5.52,0,.43-62,5.49A142.08,142.08,0,0,1,482,195a89.3,89.3,0,0,1-11.85,5.88,32.66,32.66,0,0,1-11.53,2.68,87.89,87.89,0,0,1-9.77,7.06c-7.38,4.52-13.22,7.13-17.38,7.13H338.63l-56.58,26.31-.11-.34-47-77.34L224,158.11l-84.84,50c-.38.25-7.49,5-10.17,4.2a1.37,1.37,0,0,1-.93-.8c-.55-1.31-6.83-3-17.21-4.68-8.33-1.33-17.49-2.33-20.13-2.44h0c-.17,0-17.22-4-36.62-7.85-25.66-5.11-43.77-7.72-52.37-7.56Z"/><path class="cls-15" d="M1.7,195.39c9.54-.18,33.92,3.5,52.69,6.62,20.06,3.33,38.16,6.75,38.82,6.87,2.25.1,11.48.93,20.5,2.15,5.06.67,9.15,1.35,12.17,2,5,1.09,5.88,1.86,6.08,2.34a.57.57,0,0,0,.42.34c1.9.5,8.23-3.68,10.51-5.33h0l84.95-54.06,11.1,9.16,0,0,48.64,77.57,55.73-23.3h90c8.51,0,26.79-11.79,27-11.91l.06-.09h.07c4.94,0,12.74-1.57,22.56-6.46,7.43-3.7,13.46-6.54,13.52-6.54h.05l.06-.77,60.2-5.21,0,.25-60.15,4.71c-.59.37-6.41,3.9-13.51,7.43-10,5-17.61,7.48-22.69,7.5-.56.36-5,3.25-10.26,6-7.58,4-13.28,6.07-16.92,6.07H343.44l-56,23.14-.1-.22-48.73-77.91-10.78-8.9-84.64,53.86c-.42.3-8.42,6-10.91,5.4a1,1,0,0,1-.73-.61c-.22-.53-2.42-2-17.88-4.07-9-1.21-18.27-2.05-20.48-2.14h0c-.73-.14-73.22-13.83-91.42-13.49Z"/><path class="cls-15" d="M1.7,202.18c15.57-.29,92.46,11.34,93.93,11.57,2,.08,11.7.82,20.84,1.83,18.24,2,18.79,3.34,19,3.78a.28.28,0,0,0,.21.16c1.5.37,7.5-3.71,11.17-6.55h0l84.79-58,11,9.83,0,0L293,243.39l55.15-19.62h87.14c7.29,0,26.8-10.44,27-10.54l.06-.46h.07c10.24,0,35.76-12.47,36-12.6l.06.07.05,0,58.32-4.1,0,.54-58.26,4.12c-.62.31-6.83,3.38-14.13,6.4-10.24,4.24-17.65,6.87-22,6.9-1.43.74-19.91,10.63-27.2,10.63h-87l-55.48,19.51-.12-.43L242.2,165.29l-10.62-9.54-84.41,57.67c-.14.11-2.41,1.83-4.9,3.49-5.27,3.5-6.38,3.22-6.75,3.13a.85.85,0,0,1-.59-.48c-.14-.35-1.91-1.61-18.52-3.45-9.16-1-18.87-1.76-20.82-1.84h0c-.78-.12-78.25-11.85-93.85-11.56Z"/><path class="cls-15" d="M1.7,209c13-.24,95,9.47,96.35,9.64,1.73.07,11.65.69,21.17,1.53,19,1.69,19.5,2.77,19.67,3.17,0,0,0,0,.07,0,.32.08,1.58-.14,6.51-3.71,2.75-2,5.3-4.07,5.32-4.09h0l84.6-61.82,10.88,10.5v0l52.08,78.93L353,226.77h84.24c6.07,0,26.84-8.16,27.05-8.24l.05.24h.06c8.53,0,35.7-11.24,36-11.34l0-.66h.05l56.43-3.08,0,.7-56.38,3.52c-1.62.63-27.48,10.49-36.09,10.54-1.42.57-21.13,8.32-27.22,8.32H353.06l-54.92,16.84-.12-.05-52.17-79-10.49-10.1L151.15,216c-.14.11-2.64,2.15-5.34,4.11-5.08,3.69-6.42,3.95-7,3.81a.62.62,0,0,1-.45-.36c-.05-.1-.57-.63-6.12-1.42-3.22-.46-7.64-.94-13.14-1.43-9.51-.84-19.4-1.45-21.1-1.52h0c-.83-.1-83.28-9.88-96.28-9.64Z"/><path class="cls-15" d="M1.7,215.86c10.4-.19,97.48,7.59,98.77,7.71s11.41.53,21.51,1.22c19.32,1.32,20.16,2.16,20.34,2.54.2,0,1.3-.19,6.64-4.37,3-2.31,5.77-4.71,5.8-4.74h0l84.42-65.71L250,163.66l53.81,79.43,54-13.32h81.34c4.86,0,26.88-6.28,27.1-6.34l0,.34h.05c6.82,0,35.65-8.72,35.94-8.8l0-.18,0-.08,54.54-2.8,0,.51-54.51,2.74c-1.59.46-29.1,8.66-36,8.69-1.37.42-22.34,6.92-27.23,6.92H357.86l-54.35,13.17-.11-.27L249.49,164l-10.35-10.76-84,65.37c-.12.11-2.87,2.44-5.77,4.71-6.08,4.76-6.89,4.57-7.19,4.51a.5.5,0,0,1-.35-.28c-.12-.12-.95-.54-6.57-1.14-3.35-.36-7.93-.41-13.62-.79-10-.68-20-.87-21.2-.87h0c-.88,0-88.31-8.24-98.71-8Z"/><path class="cls-15" d="M1.7,222.7c7.82-.14,100.26,5.72,101.19,5.78l1,0c3.38.13,13.64.51,23.14,1,16.53.86,18.33,1.4,18.63,1.75.33-.08,1.64-.75,6.93-5.17,3.1-2.59,6.06-5.21,6.09-5.24h0L243,151.28,253.6,163.1,309.14,243l53.47-10.18h78.44c3.65,0,26.92-5,27.15-5l0,0h0c5.12,0,35.61-6.13,35.91-6.2l.05.1,52.66-2,0,.55-52.63,2.08c-1.57.32-30.74,6.38-36,6.4-1.33.29-23.57,5.08-27.25,5.08H362.67l-53.79,10-.11-.15L253.14,163.4,242.92,152l-83.81,69.22c-.11.09-3.11,2.75-6.21,5.34-6.46,5.39-7.07,5.26-7.36,5.2a.4.4,0,0,1-.27-.18c-.43-.27-4.79-1.21-41.35-2.56l-1.06,0c-.94-.06-93.35-5.93-101.15-5.78Z"/><path class="cls-15" d="M1.7,229.49c5.21-.09,102.62,3.82,103.61,3.86l2.6.07c4.83.12,14.88.37,23.94.69,5.07.17,9.07.34,11.9.51,3.86.22,5,.37,5.32.54,1.12-.53,7.74-6.33,13.59-11.71L246.76,150l10.52,12.5,57.26,81.31,52.89-6H443c2.43,0,26.95-4,27.2-4l0-.34c3.41,0,35.54-4.34,35.87-4.38l0-.09,50.77-1.42,0,.6-50.75,1.36c-1.56.21-32.36,4.56-35.92,4.58-1.29.17-24.8,3.69-27.26,3.69h-75.5l-53.25,6.35-.11-.33-57.36-80.88-10.06-12-83.58,73s-3.3,3-6.63,6c-6.87,6.06-7.28,6-7.56,5.92a.37.37,0,0,1-.2-.12c-.85-.31-8.71-.85-40.83-1.66l-2.61-.06c-1,0-98.37-3.95-103.57-3.86Z"/><path class="cls-15" d="M1.7,236.33c2.61,0,101.8,1.85,106,1.93l3.79.05c5.44.07,15.57.2,24.43.35,4.93.09,8.81.17,11.53.25,1.56,0,2.76.09,3.58.13a10.5,10.5,0,0,1,1.33.11c1.1-.74,9-8.13,14.25-13.06l83.91-77.36,10.39,13.18,59,81.71,52.34-2.85h72.64c1.21,0,27-2,27.25-2h0c1.71,0,35.49-3,35.83-3h0l48.87-.56,0,.68-48.87.72c-1.5.1-34,2.79-35.86,2.8-1.21.08-26.05,2.36-27.28,2.36H372.27l-52.68,2.68-.11-.46L260.4,162.42l-9.93-12.68-83.38,76.83s-3.55,3.33-7.07,6.6c-2.07,1.92-3.73,3.43-5,4.53-2.42,2.16-2.52,2.14-2.73,2.09a.21.21,0,0,1-.11,0c-1.63-.33-31-.7-40.73-.82l-3.8-.05c-1,0-103.39-2-106-1.93Z"/><polygon class="cls-15" points="2.33 243.77 2.33 243.77 155.7 243.77 254.32 147.68 254.55 148.19 325.29 243.77 556.65 243.77 556.65 243.77 324.95 243.77 324.86 243.55 254.24 148.38 155.97 243.77 2.33 243.77"/><polygon class="cls-15" points="0 243.77 0 243.77 155.51 243.77 254.39 147.21 254.93 148.27 325.53 243.77 556 243.77 556 243.77 325.2 243.77 324.87 244.11 324.48 243.51 254.19 148.7 156.17 243.77 0 243.77"/></g><g class="cls-16"><path class="cls-15" d="M555.29,145.64c-12.62.23-23.51-1.75-32.36-5.9a43.49,43.49,0,0,1-24.06-28.17,36.16,36.16,0,0,1-1.22-6.41,24.35,24.35,0,0,1-14.9-5.68c-3.38-2.83-6.25-7.65-8.54-12.45a51.54,51.54,0,0,1-4.72-17.26H369.26l0,.9L344.66.65,281,69.77H150.49c-13.4,0-19.92,10.61-23,18.7A61.88,61.88,0,0,0,123.88,107v.81h-.09c-18.79,0-27.76,11.92-32,22.13A65.72,65.72,0,0,0,87,152v.1l-.19,0L0,166.58v-.17L86.62,152a68.37,68.37,0,0,1,4.86-22.39,38.78,38.78,0,0,1,11.06-15.45c5.72-4.65,12.84-7,21.15-7a59.53,59.53,0,0,1,3.59-17.74c2-5.18,4.68-10.18,8-13.14,4.14-3.71,9.26-6.46,15.23-6.46H280.93L344.73,0l24.66,69.77H469.66v1a56.23,56.23,0,0,0,4.71,16.77C478,95,484.9,104.24,497.75,104.77l.08.12V105a35.38,35.38,0,0,0,1.22,6.49,44.47,44.47,0,0,0,6.81,14.14c6.81,9.32,20.91,20.34,49.43,19.81Z"/><path class="cls-15" d="M555.29,138.8c-12,.23-22.67-1.66-31.63-5.61a51,51,0,0,1-18.18-13.32,49.9,49.9,0,0,1-8.28-13.51,36.49,36.49,0,0,1-2-6.1,27.64,27.64,0,0,1-16.12-6.15,31.25,31.25,0,0,1-9.22-12A90.92,90.92,0,0,1,465.53,69L378.3,72.77h0l-12.69-.59,0,0L339.29,1.27,276.2,66.77H148.57c-12.76,0-19.32,9.94-22.58,17.66A60.05,60.05,0,0,0,121.93,102v.73h-.09c-17.89,0-27,11.32-31.42,21.06A65.79,65.79,0,0,0,85,145.06h0l-.07,0L.15,158.77l0-.18,84.67-13.75a66.73,66.73,0,0,1,5.46-21.36,39.15,39.15,0,0,1,11.1-14.74,32.26,32.26,0,0,1,20.4-6.71,58.53,58.53,0,0,1,4.07-16.92c2.08-4.94,4.79-9.53,8.05-12.36,4.07-3.53,9-6,14.7-6H276.12L339.36,1l.05.47,26.34,70.41,12.56.74,87.37-3.81v.09a91.07,91.07,0,0,0,4.39,13c3.37,8,12,17.55,25.24,18.1h.08v.07a35.52,35.52,0,0,0,2,6.16,49.7,49.7,0,0,0,8.26,13.45c7.66,8.89,22.5,19.37,49.66,18.87Z"/><path class="cls-15" d="M555.29,132c-11.42.21-21.82-1.59-30.89-5.34A59.1,59.1,0,0,1,505.26,114a53.34,53.34,0,0,1-12.43-18.63,31.34,31.34,0,0,1-16.47-5.84c-4.57-3.19-8.17-7.37-9.9-11.45-2.68-6.37-4.65-10.72-4.89-11.3l-87.05,8h0L362,73.19l-28-71.59L271.39,63.77H146.65c-12.12,0-18.72,9.41-22.13,16.72A57.49,57.49,0,0,0,120,97.12v.65h-.09c-17,0-26.1,10.77-30.74,20a64.36,64.36,0,0,0-6.06,20.08v-.07H83L.15,150.88l0-.16,82.79-13.05A65,65,0,0,1,89,117.45a39.49,39.49,0,0,1,11.17-14,31.86,31.86,0,0,1,19.66-6.36,56.34,56.34,0,0,1,4.54-16c2.18-4.67,4.91-9,8.12-11.68,4-3.35,8.78-5.66,14.18-5.66H271.31L334,1.77H334L362.1,72.65,374.53,74l87.16-7.7,0,.07L466.63,78C470,86,480.79,94.67,492.9,95.17H493l0,.07a52.91,52.91,0,0,0,12.43,18.62c8.51,8.45,24.07,18.41,49.88,17.93Z"/><path class="cls-15" d="M555.3,125.17a79.11,79.11,0,0,1-30.18-5.06,69.28,69.28,0,0,1-20.11-12,63.5,63.5,0,0,1-14.63-17.64A35.91,35.91,0,0,1,473.58,85c-5.16-3.18-9-7.14-10.6-10.88a59,59,0,0,0-5.39-10.17L370.74,75.47h0l-12.44-1.92,0-.07L328.53,1.66,266.59,60.77H144.73c-11.45,0-18.09,8.83-21.63,15.73a56.54,56.54,0,0,0-5,16.16v1.11h-.13c-16.08,0-25.2,9.7-30,18.42A63.4,63.4,0,0,0,81.24,131v-.08l-.1-.07-81,12.33,0-.28L81,130.51a64.29,64.29,0,0,1,6.7-19.13A40.2,40.2,0,0,1,98.91,98.15a31.54,31.54,0,0,1,18.92-6,55.22,55.22,0,0,1,5-15.13c2.28-4.43,5-8.43,8.2-11a21.87,21.87,0,0,1,13.69-5.26H266.48L328.63,1.31l.08.43,29.77,71.45,12.27,2,87-11.56,0,.09A58.09,58.09,0,0,1,463.24,74c1.55,3.68,5.38,7.6,10.49,10.76a35.81,35.81,0,0,0,16.75,5.49h.09l0,.08a62.4,62.4,0,0,0,14.61,17.64c9.36,8,25.64,17.42,50.08,17Z"/><path class="cls-15" d="M555.3,118.33a81,81,0,0,1-50.5-16.1A77.82,77.82,0,0,1,488,85.57a41.63,41.63,0,0,1-17.14-5.22c-5.73-3.12-9.85-6.86-11.29-10.29a25.08,25.08,0,0,0-5.9-8.8L367,76.68h0l-12.31-2.59,0-.06L323.16,1.31,261.78,56.77h-119c-10.82,0-17.49,8.67-21.19,15.21a55.17,55.17,0,0,0-5.49,15l0,.78H116c-15.19,0-24.34,9.66-29.34,17.9a64.36,64.36,0,0,0-7.31,18.1h0l-.09-.08L.15,135.33l0-.28,79-11.69a63.78,63.78,0,0,1,7.31-18.09,41.18,41.18,0,0,1,11.3-12.52,31.1,31.1,0,0,1,18.17-5.69,55.08,55.08,0,0,1,5.5-14.32c2.37-4.19,5.15-8.29,8.26-10.69,3.9-3,8.33-5.28,13.17-5.28H261.67L323.25,1l.08.56,31.5,72.14L367,76.32l86.76-15.39,0,.07a24.8,24.8,0,0,1,6,9c1.43,3.37,5.5,7.08,11.18,10.16a41.1,41.1,0,0,0,17.09,5.19h.07l0,.06A76.58,76.58,0,0,0,505,102a81.34,81.34,0,0,0,50.31,16Z"/><path class="cls-15" d="M555.3,111.49A85.09,85.09,0,0,1,526.59,107a99.14,99.14,0,0,1-22-10.66,97.9,97.9,0,0,1-19-15.69c-5-.22-11.51-2.05-17.48-4.91-6.29-3-10.66-6.54-12-9.68a14.43,14.43,0,0,0-6.4-7.43L363.18,77.9,351,74.65l0-.06L317.79,1.46,257,53.77H140.89c-10.18,0-16.89,8-20.74,14.17a55.12,55.12,0,0,0-6,13.63l0,.2h-.11c-14.29,0-23.47,10.13-28.66,17.9-5.63,8.43-7.91,17.1-7.93,18.1h0l-.09-.66L.15,127.78l0-.43,77.1-11.07a64.74,64.74,0,0,1,7.94-17.1A42.44,42.44,0,0,1,96.51,87.37,30.79,30.79,0,0,1,113.94,82a55.79,55.79,0,0,1,6-13.51c2.47-4,5.27-7.64,8.33-9.9,3.84-2.83,8.1-4.81,12.65-4.81h116l61-52.62.08.44,33.22,72.7,12,3.27,86.54-19.25,0,0s4.17,1.88,6.58,7.6c1.31,3.08,5.62,6.57,11.86,9.55,6,2.86,12.47,4.68,17.42,4.89h.06l.05,0a96.88,96.88,0,0,0,19,15.69c11.06,7.11,28.81,15.5,50.54,15.1Z"/><path class="cls-15" d="M555.3,104.65a88.9,88.9,0,0,1-28-4.21,120.53,120.53,0,0,1-23-10,127.25,127.25,0,0,1-21.23-14.72c-4.76-.2-11.58-2-17.81-4.6-6.84-2.89-11.46-6.2-12.68-9.08a10,10,0,0,0-6.9-6.05L359.4,79.16h0l-12-3.86,0-.06L312.41,1.61,252.15,50.77H139c-9.55,0-16.31,7.48-20.3,13.23a58,58,0,0,0-6.44,12.15l0-.38h-.11c-13.4,0-22.61,9.45-28,16.71a63.29,63.29,0,0,0-8.54,16.33l0,.27-.08.12L.15,119.56l0-.23L75.33,109a65.34,65.34,0,0,1,8.55-15.92,44.37,44.37,0,0,1,11.42-11,30.73,30.73,0,0,1,16.7-5,55.75,55.75,0,0,1,6.45-12.6c2.56-3.69,5.38-7.12,8.4-9.23,3.77-2.65,7.85-4.48,12.13-4.48H252.05L312.51,1.31l35,73.52,11.88,3.93,86.32-23.08,0,0a8.81,8.81,0,0,1,2.72,1.09A10.61,10.61,0,0,1,452.91,62c1.19,2.82,5.76,6.09,12.53,9,6.13,2.59,13.11,4.39,17.77,4.58h.05l0,0a126.57,126.57,0,0,0,21.21,14.71c11.92,6.67,30.41,14.54,50.78,14.16Z"/><path class="cls-15" d="M555.3,97.85A93.13,93.13,0,0,1,528,93.92a147.74,147.74,0,0,1-23.91-9.32,169.51,169.51,0,0,1-23.42-13.73c-4.49-.2-11.78-1.92-18.15-4.3a51.73,51.73,0,0,1-8.62-4c-2.57-1.57-4.17-3.08-4.77-4.5-2-4.68-7-4.66-7.37-4.65l-86.18,27-.06,0-11.92-4.54L307,1.81l-59.66,46H137.06c-8.89,0-15.68,6.78-19.81,12.17a70.76,70.76,0,0,0-6.92,10.78l0-1h-.12c-12.49,0-21.72,9.34-27.27,16.14a63.77,63.77,0,0,0-9.17,15.55l0,.41-.11.17L.15,111.74l0-.31,73.31-9.6a68,68,0,0,1,9.18-14.9A46.2,46.2,0,0,1,94.08,76.6a30.34,30.34,0,0,1,16-4.7,57.56,57.56,0,0,1,6.91-11.81,37.49,37.49,0,0,1,8.48-8.39,21.06,21.06,0,0,1,11.64-3.93H247.22L307.15,1.43l.11.3,36.66,73.79,11.71,3.85,86.1-27.6h0c.06,0,1.42.59,3.07,1.16a8.35,8.35,0,0,1,4.68,4.68c1.09,2.57,5.89,5.76,13.18,8.48,6.37,2.37,13.65,4.17,18.1,4.35l.06,0,0,.05a167.15,167.15,0,0,0,23.4,13.74c12.77,6.22,32,13.57,51,13.22Z"/><path class="cls-15" d="M555.3,91a98.75,98.75,0,0,1-26.52-3.65,186.18,186.18,0,0,1-24.87-8.65A233,233,0,0,1,478.3,66c-4.3-.19-11.89-1.83-18.49-4-4.66-1.53-12.68-4.58-14.08-7.92a5.5,5.5,0,0,0-4.65-3.32,10.53,10.53,0,0,0-3.23,0l-86,30.88-.07,0L340,76.48l0-.06L301.65,2l-59.11,42.8H135.14c-8.26,0-15.09,6.25-19.37,11.23a69.59,69.59,0,0,0-7.39,10.3l0-.53h-.12c-11.6,0-20.87,8.29-26.6,14.58a65.81,65.81,0,0,0-9.78,14.2l0,.28-.1.11-71.53,9,0-.32,71.44-8.92A70.26,70.26,0,0,1,81.33,80.9a48.9,48.9,0,0,1,11.55-9.55A30.38,30.38,0,0,1,108.09,67a60.6,60.6,0,0,1,7.39-10.91A39.23,39.23,0,0,1,124,48.37a21,21,0,0,1,11.11-3.6H242.41L301.78,1.6l38.49,74.55,11.59,5.1,85.89-30.81h0a10.72,10.72,0,0,1,3.38,0,5.9,5.9,0,0,1,4.93,3.54c1,2.34,6,5.23,13.86,7.79,6.6,2.16,14.18,4,18.44,4h.05l0,0a233.82,233.82,0,0,0,25.61,12.72c13.62,5.78,33.57,12.57,51.22,12.25Z"/><path class="cls-15" d="M555.3,84.18c-7.23.13-15.9-1-25.78-3.37a231.73,231.73,0,0,1-25.82-8c-15.29-5.63-27.07-11.4-27.81-11.77-4.12-.18-12-1.72-18.84-3.68-5-1.43-13.48-4.27-14.76-7.31-.72-1.71-2.34-2.55-4.82-2.51a13.42,13.42,0,0,0-3.58.61L348.06,82.89l-.08,0L336.34,77,296.28,2.12,237.73,41.77H133.22c-7.62,0-14.49,5.59-18.92,10.19a85.24,85.24,0,0,0-7.88,9.43l0-.62h-.11c-10.7,0-20,7.69-25.92,13.5A70.41,70.41,0,0,0,69.93,87.43l-.05.26-.09.11L.15,96.1l0-.33,69.56-8.23a76.37,76.37,0,0,1,10.4-12.76A53.3,53.3,0,0,1,91.67,66a30.49,30.49,0,0,1,14.48-4A64.39,64.39,0,0,1,114,51.83a44.37,44.37,0,0,1,8.61-7.44c3.6-2.12,7.16-3.62,10.59-3.62H237.61l58.8-39.5,40.21,75.29,11.46,5.83,85.68-34.62v0a13.83,13.83,0,0,1,3.7-.61c2.61,0,4.4.89,5.17,2.73.9,2.12,6.19,4.71,14.53,7.11,6.81,2,14.71,3.5,18.78,3.67H476l0,0c.12.06,12.11,6,27.81,11.78,14.49,5.33,35.17,11.63,51.46,11.32Z"/><path class="cls-15" d="M555.3,77.34c-6.62.12-15-.92-25-3.09-8-1.74-17-4.2-26.77-7.32-16.24-5.18-29.27-10.49-30-10.79a121.48,121.48,0,0,1-19.17-3.38C449,51.44,440,48.81,438.84,46.05a2.71,2.71,0,0,0-1.62-1.54c-2.68-1-7.24,1-7.29,1L344.28,84.11l-11.59-6.53,0,0L290.9,2.27l-58,36.5H131.3c-7,0-13.9,4.93-18.47,9.16a78,78,0,0,0-8.36,9l-.06-.21h-.1c-9.81,0-19.15,6.59-25.25,11.94A81.67,81.67,0,0,0,68,80.56l0,.12-.09,0L.15,88.29.1,88,67.78,80.4a84.31,84.31,0,0,1,11-11.73,58.07,58.07,0,0,1,11.66-8.12,30.56,30.56,0,0,1,13.74-3.7,71.47,71.47,0,0,1,8.35-9.29,42.58,42.58,0,0,1,8.68-6.14,20.35,20.35,0,0,1,10.06-2.65H232.8L291,1.93l.1,0L333,77.41l11.33,6.34,85.47-38.53c.2-.09,4.76-2.09,7.59-1a3.12,3.12,0,0,1,1.83,1.73c.82,1.94,6.22,3.74,15.21,6a95.12,95.12,0,0,0,19.12,2.85h0l0,.52c.13.06,13.39,5.75,30,11.06,15.34,4.89,36.75,10.79,51.69,10.51Z"/><path class="cls-15" d="M555.3,70.54c-6,.11-14.21-.83-24.32-2.81-8.08-1.58-17.41-3.81-27.73-6.65-17.15-4.71-31.42-9.54-32.21-9.81a149.49,149.49,0,0,1-19.5-3.07c-6.83-1.48-15.17-3.76-16.18-6.14A1.9,1.9,0,0,0,434.14,41c-2.68-.9-8.09,1.95-8.14,2L340.5,85.4,329,78.2l0,0L285.51,2l-57.4,32.81H129.38c-6.33,0-13.28,4.83-18,8.68-5.13,4.18-8.8,7.81-8.83,7.86l-.07-.54h-.11c-8.91,0-18.27,6.53-24.55,11.38A82.59,82.59,0,0,0,66.17,73.2l-.06.25-.09.1L.15,80.47l0-.41L65.87,73.2A97.33,97.33,0,0,1,77.52,62.54a66.14,66.14,0,0,1,11.73-7.38,31.12,31.12,0,0,1,13-3.36,78.57,78.57,0,0,1,8.81-8.44,51.45,51.45,0,0,1,8.75-5.89,21.55,21.55,0,0,1,9.56-2.7H228L285.69,1.56l.11.21,43.56,76.12,11.16,7,85.25-42.34c.23-.12,5.65-3,8.52-2a2.34,2.34,0,0,1,1.5,1.36c.72,1.69,6.5,3.83,15.85,5.87a148,148,0,0,0,19.46,3.06h.07c.14,0,14.66,5,32.21,9.82,16.19,4.45,38.33,9.69,51.91,9.44Z"/><path class="cls-15" d="M555.3,63.71C543,63.93,520.11,59.2,503,55.19c-18.13-4.25-33.66-8.62-34.41-8.83a190.07,190.07,0,0,1-19.84-2.76A109.78,109.78,0,0,1,437.63,41c-3.44-1-5.31-2-5.71-3a1.37,1.37,0,0,0-.9-.79c-2.62-.79-8.92,3-9,3h0L336.71,86.66l-11.36-7.82,0,0L280.14,2.61,223.29,32.77H127.46c-5.7,0-12.7,3.8-17.56,7.24-5.29,3.74-9.28,7.1-9.32,7.14l-.06-.38h-.1c-8,0-17.41,5.47-23.88,9.82a103.64,103.64,0,0,0-12.28,9.7l-.05.12-.09,0-64,6.21,0-.43L64,66.06a112.83,112.83,0,0,1,12.26-9.54,75.73,75.73,0,0,1,11.79-6.61,32,32,0,0,1,12.27-3,94.41,94.41,0,0,1,9.3-7.54,57.7,57.7,0,0,1,8.81-5.22,22.1,22.1,0,0,1,9-2.37h95.71l57.15-30,.11.18,45.28,76.64,11,7.59,85-46.21c.34-.2,6.57-3.93,9.37-3.08a1.82,1.82,0,0,1,1.19,1c.63,1.5,6.66,3.35,16.53,5.2,8.52,1.59,17.11,2.67,19.8,2.67h0l0,.09c.16,0,15.94,4.53,34.42,8.87,17,4,39.92,8.74,52.14,8.52Z"/><path class="cls-15" d="M555.3,56.87c-10.91.2-34.56-4-52.48-7.57-19.08-3.8-35.89-7.69-36.61-7.85-2.69-.12-11.85-1.13-20.17-2.45-11-1.76-16.92-3.43-17.56-5a.89.89,0,0,0-.64-.53c-2.48-.7-9.69,4.1-9.77,4.15h0l-85.13,50.2-.12-.1L321.7,79.39l0,0L274.76,2.26,218.47,28.77H125.54c-4,0-9.93,2.31-17.13,6.72C103,38.83,98.66,42,98.62,42l-.06-.21h-.09c-7.12,0-16.56,4.88-23.22,8.75a127.38,127.38,0,0,0-12.89,8.65l-.06.1-.07,0L.14,64.83l0-.43,62-5.5A143.09,143.09,0,0,1,75,50.4a87.66,87.66,0,0,1,11.85-5.89,32.88,32.88,0,0,1,11.53-2.68,93.43,93.43,0,0,1,9.77-7c7.38-4.52,13.22-7.07,17.38-7.07h92.82L275,1.4l.11.31,47,77.32L333,87.31l84.84-50c.38-.26,7.49-5,10.17-4.21a1.37,1.37,0,0,1,.93.8c.55,1.32,6.82,3,17.21,4.68,8.33,1.33,17.49,2.34,20.13,2.45h.05c.17,0,17.22,4,36.62,7.86,25.66,5.1,43.77,7.71,52.37,7.55Z"/><path class="cls-15" d="M555.3,50c-9.54.18-33.92-3.5-52.7-6.61-20.05-3.34-38.15-6.75-38.81-6.88-2.25-.09-11.48-.93-20.5-2.14-5.06-.68-9.15-1.35-12.17-2-5-1.08-5.88-1.85-6.08-2.34a.61.61,0,0,0-.42-.34c-1.9-.49-8.23,3.68-10.51,5.33h0l-85,54.06-11.1-9.16,0,0L269.39,2.41,213.66,25.77h-90c-8.52,0-26.79,11.8-27,11.92l-.06.08h-.08c-4.93,0-12.73,1.58-22.55,6.46-7.43,3.71-13.46,6.54-13.52,6.54H60.4l-.06.71L.14,56.65l0-.26,60.15-4.72c.59-.37,6.41-3.9,13.51-7.44,10-5,17.61-7.47,22.69-7.5.56-.36,5-3.18,10.26-5.95,7.58-4,13.28-6,16.92-6h89.93l56-23.2.1.18,48.73,77.9,10.78,8.9,84.64-53.88c.42-.3,8.42-6.05,10.91-5.4a1.05,1.05,0,0,1,.73.61c.22.53,2.41,2,17.88,4.07,9,1.21,18.27,2,20.48,2.14h0c.72.13,73.22,13.82,91.42,13.48Z"/><path class="cls-15" d="M555.3,43.23c-15.57.29-92.46-11.34-93.93-11.56-2-.09-11.7-.83-20.84-1.84-18.24-2-18.79-3.34-19-3.77a.28.28,0,0,0-.21-.17c-1.5-.37-7.5,3.72-11.17,6.55h0l-84.79,58-11-9.83v0L264,2.09,208.85,21.77H121.71c-7.29,0-26.8,10.45-27,10.55l-.06.45h-.07c-10.24,0-35.76,12.41-36,12.54l-.05-.1,0-.06L.14,49.25l0-.55,58.26-4.13c.62-.31,6.83-3.37,14.13-6.39,10.24-4.24,17.65-6.81,22-6.83,1.43-.75,19.9-10.58,27.2-10.58h87L264.23,1.2l.12.4L314.8,80.14l10.62,9.54L409.83,32c.14-.11,2.4-1.84,4.9-3.49,5.26-3.51,6.38-3.23,6.75-3.14a.86.86,0,0,1,.59.49c.14.34,1.91,1.6,18.52,3.44,9.16,1,18.87,1.76,20.82,1.84h0c.78.12,78.25,11.85,93.85,11.56Z"/><path class="cls-15" d="M555.3,36.39c-13,.24-95-9.47-96.35-9.64-1.74-.07-11.65-.68-21.17-1.53-19-1.69-19.5-2.77-19.67-3.17A.08.08,0,0,0,418,22c-.32-.08-1.59.14-6.52,3.72-2.74,2-5.29,4.06-5.31,4.09h0L321.58,91.64,310.71,81.13v0L258.62,2.24,204,18.77H119.79c-6.08,0-26.84,8.16-27.05,8.25l0-.25h-.06c-8.53,0-35.71,11.24-36,11.35l0,.65h0l-56.43,3,0-.73,56.38-3.54C58.1,36.89,84,27.09,92.57,27c1.42-.57,21.12-8.27,27.22-8.27h84.15l54.92-16.9.11,0,52.18,79L321.64,91l84.21-61.55c.14-.12,2.64-2.16,5.33-4.11,5.09-3.7,6.43-3.95,7-3.82a.62.62,0,0,1,.46.36c.05.1.57.64,6.12,1.43,3.22.45,7.64.93,13.14,1.42,9.51.84,19.4,1.45,21.1,1.53h0c.83.09,83.28,9.87,96.28,9.63Z"/><path class="cls-15" d="M555.3,29.55c-10.41.2-97.49-7.59-98.77-7.71s-11.41-.53-21.51-1.22c-19.32-1.32-20.16-2.16-20.34-2.54-.2,0-1.3.2-6.64,4.37-3,2.31-5.77,4.72-5.8,4.74h0L317.81,92.91,307.05,81.75,253.24,2.39l-54,13.38H117.87c-4.86,0-26.88,6.28-27.1,6.35l0-.35h0c-6.82,0-35.65,8.66-35.94,8.74l0,.15,0,.07L.13,33.51.1,33l54.51-2.74c1.59-.47,29.1-8.59,36-8.63,1.37-.41,22.34-6.86,27.23-6.86h81.27L253.49,1.54l.11.23,53.9,79.64,10.36,10.75,84-65.38c.12-.1,2.87-2.44,5.77-4.71,6.07-4.75,6.88-4.57,7.19-4.5a.47.47,0,0,1,.35.27c.12.12.95.54,6.57,1.15,3.35.36,7.93.47,13.62.85,10,.68,20,.93,21.19.93h0c.88,0,88.31,8.18,98.71,8Z"/><path class="cls-15" d="M555.3,22.71C547.48,22.86,455,17,454.11,16.93l-1.06,0c-3.37-.12-13.63-.5-23.13-1-16.53-.86-18.33-1.4-18.63-1.74-.33.08-1.65.75-6.93,5.16-3.1,2.59-6.06,5.22-6.09,5.24h0L314,94.13,303.4,82.31,247.86,2.53,194.39,12.77H116c-3.65,0-26.92,5-27.15,5l0,0h0c-5.13,0-35.61,6.07-35.91,6.14l0-.13-52.66,2,0-.56,52.63-2.08c1.57-.33,30.73-6.32,36-6.34,1.33-.29,23.57-5,27.25-5h78.38L248.12,1.71l.11.11L303.86,82l10.22,11.36,83.81-69.22c.11-.09,3.1-2.75,6.21-5.35,6.46-5.39,7.07-5.26,7.36-5.2a.39.39,0,0,1,.26.18c.44.27,4.8,1.21,41.36,2.56l1.06,0c.94.06,93.35,5.93,101.15,5.78Z"/><path class="cls-15" d="M555.3,15.92c-5.22.1-102.62-3.82-103.61-3.86l-2.6-.06c-4.83-.12-14.88-.38-23.94-.69-5.07-.18-9.07-.35-11.9-.52-3.86-.22-5-.37-5.32-.54-1.12.53-7.74,6.34-13.6,11.71L310.24,95.45,299.71,83,242.46,1.71,189.57,7.77H114c-2.43,0-26.95,3.91-27.2,3.94l0,.3c-3.41,0-35.54,4.33-35.87,4.37l0,.08L.12,17.87l0-.59,50.75-1.37c1.56-.2,32.36-4.49,35.92-4.51,1.29-.17,24.8-3.63,27.26-3.63h75.5l53.25-6.41.11.3,57.36,80.86,10.06,12,83.58-73s3.3-3,6.63-6c6.87-6.07,7.28-6,7.56-5.92a.36.36,0,0,1,.2.11c.85.31,8.71.85,40.83,1.66l2.61.07c1,0,98.37,4,103.57,3.85Z"/><path class="cls-15" d="M555.3,9.08c-2.61.05-101.8-1.85-106-1.93l-3.79-.05c-5.44-.07-15.57-.2-24.43-.35-4.93-.09-8.81-.17-11.53-.25-1.56,0-2.77-.09-3.59-.13a8.63,8.63,0,0,1-1.32-.11c-1.1.74-9,8.13-14.25,13.07L306.46,96.68,296.07,83.51l-59-81.65L184.75,4.77H112.11c-1.21,0-27,2-27.25,2h0c-1.71,0-35.49,3-35.83,3h0l-48.88.5V9.55L49,8.82c1.5-.1,34-2.74,35.86-2.74C86,6,110.88,3.77,112.11,3.77h72.62L237.41,1l.11.43L296.6,83l9.93,12.67,83.38-76.83s3.55-3.33,7.07-6.6c2.07-1.92,3.73-3.44,4.95-4.53,2.42-2.16,2.52-2.14,2.73-2.1l.11,0c1.63.33,31,.7,40.73.82l3.8,0c1,0,103.39,2,106,1.93Z"/><polygon class="cls-15" points="554.66 1.77 554.66 1.77 401.3 1.77 302.68 97.8 302.45 97.33 231.71 1.77 0.35 1.77 0.35 1.77 232.05 1.77 232.14 1.93 302.76 97.13 401.03 1.77 554.66 1.77"/><polygon class="cls-15" points="557 1.77 557 1.77 401.49 1.77 302.61 98.27 302.07 97.24 231.47 1.77 1 1.77 1 1.77 231.8 1.77 232.13 1.37 232.52 1.94 302.81 96.8 400.83 1.77 557 1.77"/></g><path class="cls-17" d="M61.52,109.81a4.11,4.11,0,0,1-1.41-.3,11.65,11.65,0,0,1-6-6c-.4-1-.4-1.92,0-2.31l.18-.18a1.87,1.87,0,0,1,1.31-.79,1.57,1.57,0,0,1,1.11.71c1.09,1.36.6,1.84,0,2.4l-.1.1c-.09.1-.27.53,1.38,2.17a8.35,8.35,0,0,0,1.35,1.16c.23.15.65.38.81.21l.1-.1c.57-.57,1-1.06,2.41,0A1.59,1.59,0,0,1,63.4,108c0,.54-.41.94-.79,1.31l-.18.17a1.25,1.25,0,0,1-.91.3Z"/><path class="cls-18" d="M82.84,142.38H85.3v.49H83.43v1.52h1.73v.49H83.43V147h-.59Z"/><path class="cls-19" d="M90.43,144.62A2.15,2.15,0,0,1,88.3,147a2.1,2.1,0,0,1-2-2.32,2.16,2.16,0,0,1,2.12-2.4A2.08,2.08,0,0,1,90.43,144.62Zm-3.55.07c0,1,.53,1.85,1.46,1.85s1.46-.86,1.46-1.9-.47-1.85-1.46-1.85S86.88,143.69,86.88,144.69Z"/><path class="cls-20" d="M91.57,142.38h.59v4.08h2V147H91.57Z"/><path class="cls-21" d="M95.14,142.38h.59v4.08h2V147H95.14Z"/><path class="cls-22" d="M102.36,144.62a2.15,2.15,0,0,1-2.12,2.41,2.1,2.1,0,0,1-2.06-2.32,2.16,2.16,0,0,1,2.12-2.4A2.08,2.08,0,0,1,102.36,144.62Zm-3.55.07c0,1,.53,1.85,1.46,1.85s1.47-.86,1.47-1.9-.48-1.85-1.46-1.85S98.81,143.69,98.81,144.69Z"/><path class="cls-23" d="M104.25,147l-1.16-4.57h.62l.54,2.31c.14.57.26,1.14.34,1.58h0a15.68,15.68,0,0,1,.37-1.58l.61-2.31h.62l.55,2.32c.13.54.25,1.08.32,1.56h0c.09-.5.22-1,.36-1.57l.61-2.31h.6l-1.3,4.57h-.61l-.58-2.38a14,14,0,0,1-.3-1.49h0a12.11,12.11,0,0,1-.36,1.49l-.65,2.38Z"/><path class="cls-24" d="M112,142.38v2.71c0,1,.45,1.45,1.06,1.45s1.11-.44,1.11-1.45v-2.71h.6V145c0,1.41-.74,2-1.73,2s-1.64-.54-1.64-2v-2.69Z"/><path class="cls-25" d="M116.11,146.23a2.1,2.1,0,0,0,1.06.3c.6,0,1-.32,1-.78s-.24-.67-.86-.91-1.21-.65-1.21-1.29a1.31,1.31,0,0,1,1.48-1.24,2,2,0,0,1,1,.22l-.16.48a1.82,1.82,0,0,0-.87-.22c-.62,0-.86.38-.86.69s.28.64.91.88,1.17.67,1.17,1.34-.52,1.32-1.6,1.32a2.43,2.43,0,0,1-1.17-.29Z"/><path class="cls-26" d="M119.77,146.6a.4.4,0,0,1,.4-.42.39.39,0,0,1,.4.42.4.4,0,0,1-.4.43A.41.41,0,0,1,119.77,146.6Zm.17-1-.09-3.25h.65l-.1,3.25Z"/><rect class="cls-27" x="93.9" y="138.37" width="11.87" height="0.51"/><rect class="cls-28" x="93.9" y="164.94" width="11.87" height="0.51"/><path class="cls-29" d="M139.42,151.64l-8.43-.13V151l8.43.13Z"/><path class="cls-30" d="M126.77,151.46c-11.36-.11-22.7-.14-33.72-.06v-.51c11-.08,22.37-.06,33.73.06Z"/><polygon class="cls-31" points="86.03 151.46 86.02 150.95 89.54 150.91 89.54 151.42 86.03 151.46"/><path class="cls-32" d="M72.76,151.64v-.51l9.1-.14v.51Z"/><rect class="cls-33" x="60.25" y="151.13" width="8.74" height="0.51"/><polygon class="cls-34" points="33.17 112.49 33.17 83.49 172.65 83.49 172.65 112.49 173.39 112.49 173.39 82.74 32.43 82.74 32.43 112.49 33.17 112.49"/><polygon class="cls-35" points="172.65 140.66 172.65 172.84 33.17 172.84 33.17 140.66 32.43 140.66 32.43 173.58 173.39 173.58 173.39 140.66 172.65 140.66"/><text class="cls-36" transform="translate(69.54 70.27)">PUR<tspan class="cls-37" x="20.6" y="0">F</tspan><tspan x="25.51" y="0">ANGE</tspan></text><text class="cls-36" transform="translate(66.5 108.37)">+994(55)752 55 66</text><text class="cls-36" transform="translate(50.95 126.08)"><tspan class="cls-38">P</tspan><tspan x="6.2" y="0">u</tspan><tspan class="cls-39" x="12.82" y="0">r</tspan><tspan x="17.1" y="0">fange@</tspan><tspan class="cls-40" x="54.61" y="0">g</tspan><tspan x="61.25" y="0">mai</tspan><tspan class="cls-41" x="79.85" y="0">l</tspan><tspan x="82.56" y="0">.</tspan><tspan class="cls-40" x="85.04" y="0">c</tspan><tspan x="90.35" y="0">om</tspan></text><rect class="cls-42" x="196.3" y="34.09" width="0.86" height="160.28"/><rect class="cls-43" x="228.32" y="84.15" width="177.54" height="0.86"/><rect class="cls-44" x="228.32" y="104.98" width="177.54" height="0.86"/><rect class="cls-45" x="228.32" y="125.81" width="177.54" height="0.86"/><rect class="cls-46" x="228.32" y="146.65" width="177.54" height="0.86"/><rect class="cls-47" x="228.32" y="167.48" width="177.54" height="0.86"/><path class="cls-48" d="M277.71,64.85v3.86h-1.34V64.85l-2.9-5.65H275L277,63.49l2.08-4.29h1.49Z"/><path class="cls-49" d="M283,68.38a3,3,0,0,1-1.18-1.23,3.91,3.91,0,0,1-.41-1.85V62.61a3.91,3.91,0,0,1,.41-1.85A3,3,0,0,1,283,59.53a3.44,3.44,0,0,1,1.75-.43,3.5,3.5,0,0,1,1.76.43,3,3,0,0,1,1.17,1.23,3.91,3.91,0,0,1,.41,1.85V65.3a3.91,3.91,0,0,1-.41,1.85,3,3,0,0,1-1.17,1.23,3.5,3.5,0,0,1-1.76.43A3.44,3.44,0,0,1,283,68.38Zm2.79-1.15a1.73,1.73,0,0,0,.69-.75,2.54,2.54,0,0,0,.25-1.13V62.56a2.54,2.54,0,0,0-.25-1.13,1.79,1.79,0,0,0-.69-.75,2.14,2.14,0,0,0-2.08,0,1.79,1.79,0,0,0-.69.75,2.41,2.41,0,0,0-.25,1.13v2.79a2.41,2.41,0,0,0,.25,1.13,1.73,1.73,0,0,0,.69.75,2.14,2.14,0,0,0,2.08,0Z"/><path class="cls-50" d="M291.65,68.4a2.73,2.73,0,0,1-1.14-1.21,4.32,4.32,0,0,1-.4-1.92V59.2h1.34v6.12a2.29,2.29,0,0,0,.52,1.61,2.22,2.22,0,0,0,3,0,2.3,2.3,0,0,0,.53-1.61V59.2h1.33v6.07a4.32,4.32,0,0,1-.39,1.92,2.73,2.73,0,0,1-1.14,1.21,3.82,3.82,0,0,1-1.82.41A3.74,3.74,0,0,1,291.65,68.4Z"/><path class="cls-51" d="M299,59.19h1.34v9.52H299Zm.58,4.23h3.25a1.17,1.17,0,0,0,.67-.19,1.2,1.2,0,0,0,.46-.51,2,2,0,0,0,0-1.56,1.34,1.34,0,0,0-.45-.52,1.28,1.28,0,0,0-.68-.18h-3.25V59.19h3.2a3,3,0,0,1,1.45.34,2.45,2.45,0,0,1,1,1,3,3,0,0,1,.34,1.44,2.92,2.92,0,0,1-.35,1.44,2.38,2.38,0,0,1-1,1,3.06,3.06,0,0,1-1.44.34h-3.2Zm2.59,1,1.33-.3L306,68.71h-1.59Z"/><path class="cls-52" d="M308.75,59.2h6.72v1.27h-6.72Zm2.69.78h1.34v8.73h-1.34Z"/><path class="cls-53" d="M316.51,59.2h1.34v9.51h-1.34Zm.65,0h5.47v1.27h-5.47Zm0,4.15h4.75v1.27h-4.75Zm0,4.09h5.47v1.27h-5.47Z"/><path class="cls-54" d="M326.79,63.27l2.39-4.07h1.5l-3.15,5.15L325,68.71h-1.5Zm.06,1.26-.2-.33-3.09-5h1.5l2.29,3.87.22.36,3.25,5.28h-1.49Z"/><path class="cls-55" d="M330.82,59.2h6.72v1.27h-6.72Zm2.69.78h1.34v8.73h-1.34Z"/><path class="cls-56" d="M340.88,59.2h1.33v9.51h-1.33Zm.83,4.19H347v1.27h-5.28Zm4.58-4.19h1.33v9.51h-1.33Z"/><path class="cls-57" d="M350,59.2h1.33v9.51H350Zm.65,0h5.46v1.27h-5.46Zm0,4.15h4.74v1.27h-4.74Zm0,4.09h5.46v1.27h-5.46Z"/><path class="cls-58" d="M358,59.19h1.34v9.52H358Zm.58,4.23h3.25a1.17,1.17,0,0,0,.67-.19,1.2,1.2,0,0,0,.46-.51,2,2,0,0,0,0-1.56,1.34,1.34,0,0,0-.45-.52,1.28,1.28,0,0,0-.68-.18h-3.25V59.19h3.2a3,3,0,0,1,1.45.34,2.45,2.45,0,0,1,1,1,2.89,2.89,0,0,1,.34,1.44,2.92,2.92,0,0,1-.35,1.44,2.38,2.38,0,0,1-1,1,3.06,3.06,0,0,1-1.44.34h-3.2Zm2.6,1,1.32-.3,2.44,4.62h-1.59Z"/><path class="cls-59" d="M366.73,59.2h1.33v9.51h-1.33Zm.65,0h5.46v1.27h-5.46Zm0,4.15h4.74v1.27h-4.74Zm0,4.09h5.46v1.27h-5.46Z"/><path class="cls-60" d="M471.46,124.72,470,124a5.72,5.72,0,0,1-2.31-2,7.29,7.29,0,0,1-1.1-3.14h3.21a3.32,3.32,0,0,0,.6,1.57,2.74,2.74,0,0,0,1.2.92,4.52,4.52,0,0,0,1.72.3,3.37,3.37,0,0,0,2.42-.83,3.13,3.13,0,0,0,.86-2.35v-.67a3.8,3.8,0,0,0-.81-2.6,2.93,2.93,0,0,0-2.32-.92H471.9v-3h1.59a2.67,2.67,0,0,0,2-.79,3.15,3.15,0,0,0,.72-2.22v-.7a2.7,2.7,0,0,0-.76-2.05,3,3,0,0,0-2.17-.72,3.3,3.3,0,0,0-1.43.3,2.7,2.7,0,0,0-1.07.92,4.25,4.25,0,0,0-.65,1.57H467a8.16,8.16,0,0,1,1.17-3.15,5.79,5.79,0,0,1,2.16-2,6.51,6.51,0,0,1,3-.68,6.22,6.22,0,0,1,4.49,1.53,5.68,5.68,0,0,1,1.59,4.3V108a4.9,4.9,0,0,1-.91,2.93,5.18,5.18,0,0,1-2.58,1.82,4.54,4.54,0,0,1,2.85,1.8,6,6,0,0,1,1,3.58v.37a6.85,6.85,0,0,1-.76,3.35,5,5,0,0,1-2.19,2.11,7.77,7.77,0,0,1-3.48.73Z"/><path class="cls-60" d="M487.45,123a6.43,6.43,0,0,1-1.63-4.68v-10.2a6.41,6.41,0,1,1,12.8,0v10.2a5.77,5.77,0,0,1-6.4,6.37A6.32,6.32,0,0,1,487.45,123Zm7.23-2.18a3.59,3.59,0,0,0,.8-2.5v-10.2a3.6,3.6,0,0,0-.79-2.51,3.93,3.93,0,0,0-4.93,0,3.6,3.6,0,0,0-.79,2.51v10.2a3.59,3.59,0,0,0,.79,2.5,3.91,3.91,0,0,0,4.92,0Z"/><path class="cls-60" d="M506.46,123a6.43,6.43,0,0,1-1.63-4.68v-10.2a6.42,6.42,0,1,1,12.81,0v10.2a5.79,5.79,0,0,1-6.41,6.37A6.31,6.31,0,0,1,506.46,123Zm7.23-2.18a3.59,3.59,0,0,0,.8-2.5v-10.2a3.6,3.6,0,0,0-.79-2.51,3.93,3.93,0,0,0-4.93,0,3.6,3.6,0,0,0-.79,2.51v10.2a3.59,3.59,0,0,0,.79,2.5,3.91,3.91,0,0,0,4.92,0Z"/><path class="cls-60" d="M528.93,124.72l-1.33-.37a9.42,9.42,0,0,1-2.5-1.08,10.7,10.7,0,0,1-2.18-1.79l2.11-2.56a7.68,7.68,0,0,0,2.46,2,6.48,6.48,0,0,0,2.94.67,5.21,5.21,0,0,0,3.27-.86,3.11,3.11,0,0,0,1.08-2.6h0a2.66,2.66,0,0,0-.53-1.76,3.17,3.17,0,0,0-1.35-1,11.88,11.88,0,0,0-2.13-.57l-.08,0h-.09l-.16,0-.17,0a20.79,20.79,0,0,1-3.34-.87,4.66,4.66,0,0,1-2.19-1.73,6,6,0,0,1-.91-3.58h0a7.76,7.76,0,0,1,.81-3.74,5.24,5.24,0,0,1,2.45-2.24,9.75,9.75,0,0,1,4.08-.75,10.5,10.5,0,0,1,4.23.91,13.43,13.43,0,0,1,2.05,1.13l-1.9,2.61a9.3,9.3,0,0,0-2.23-1.15,6.54,6.54,0,0,0-2.15-.38,4.68,4.68,0,0,0-3,.84,3.07,3.07,0,0,0-1,2.52v0a2.63,2.63,0,0,0,.58,1.81,3.58,3.58,0,0,0,1.48,1,22.34,22.34,0,0,0,2.43.64l.12,0,.14,0,.15,0,.14,0a13.86,13.86,0,0,1,3.05,1,4.77,4.77,0,0,1,2,1.86,6.36,6.36,0,0,1,.82,3.48v0a7,7,0,0,1-.85,3.62,5.18,5.18,0,0,1-2.54,2.16,10.79,10.79,0,0,1-4.23.72Zm.22-25.4h3.15v27.89h-3.15Z"/><path class="cls-60" d="M475,131.65h1.36l2.14,7,2.13-7H482l-2.9,8.89H477.9Z"/><path class="cls-60" d="M488.91,131.65H490l3.28,8.89h-1.34l-2.47-7.17L487,140.54h-1.34Zm-1.77,5.75h4.68v1.19h-4.68Z"/><path class="cls-60" d="M498.36,131.65h1.25v8.89h-1.25Zm.63,7.71h5.09v1.18H499Z"/><path class="cls-60" d="M510.62,140.25a2.66,2.66,0,0,1-1.07-1.13,4.11,4.11,0,0,1-.36-1.79v-5.68h1.25v5.72a2.1,2.1,0,0,0,.49,1.5,1.75,1.75,0,0,0,1.38.54,1.79,1.79,0,0,0,1.39-.54,2.11,2.11,0,0,0,.5-1.5v-5.72h1.24v5.68a4.11,4.11,0,0,1-.36,1.79,2.62,2.62,0,0,1-1.08,1.13,3.86,3.86,0,0,1-3.38,0Z"/><path class="cls-60" d="M521.28,131.65h1.25v8.89h-1.25Zm.61,0H527v1.18h-5.11Zm0,3.88h4.44v1.19h-4.44Zm0,3.83H527v1.18h-5.11Z"/></g></g></svg>