<?xml version="1.0"?>
<svg xmlns="http://www.w3.org/2000/svg" xmlns:xlink="http://www.w3.org/1999/xlink" xmlns:svgjs="http://svgjs.com/svgjs" version="1.1" width="512" height="512" x="0" y="0" viewBox="0 0 512 512" style="enable-background:new 0 0 512 512" xml:space="preserve" class=""><g>
<path xmlns="http://www.w3.org/2000/svg" style="" d="M394.667,256C318.122,255.906,256.094,193.878,256,117.333c0-3.605,0.277-7.125,0.533-10.667H96  c-5.891,0.005-10.662,4.785-10.657,10.677c0.001,0.655,0.062,1.309,0.182,1.953l32,170.667c0.944,5.043,5.344,8.699,10.475,8.704  h292.992c26.9,0.003,49.592-20.027,52.928-46.72l2.901-23.168C453.072,246.443,424.265,255.988,394.667,256z" fill="#ffffff" data-original="#ffc107" class=""/>
<g xmlns="http://www.w3.org/2000/svg">
	<circle style="" cx="394.667" cy="458.667" r="53.333" fill="#ffffff" data-original="#455a64" class=""/>
	<circle style="" cx="181.333" cy="458.667" r="53.333" fill="#ffffff" data-original="#455a64" class=""/>
	<path style="" d="M437.333,384H191.125c-35.561-0.074-66.163-25.156-73.216-60.011L65.92,64H10.667   C4.776,64,0,59.224,0,53.333s4.776-10.667,10.667-10.667h64c5.07-0.001,9.439,3.566,10.453,8.533l53.717,268.587   c5.035,24.896,26.888,42.817,52.288,42.88h246.208c5.891,0,10.667,4.776,10.667,10.667S443.224,384,437.333,384z" fill="#ffffff" data-original="#455a64" class=""/>
</g>
<circle xmlns="http://www.w3.org/2000/svg" style="" cx="394.667" cy="117.333" r="117.333" fill="#ffffff" data-original="#4caf50" class=""/>
<g xmlns="http://www.w3.org/2000/svg">
	<path style="" d="M437.333,128H352c-5.891,0-10.667-4.776-10.667-10.667s4.776-10.667,10.667-10.667h85.333   c5.891,0,10.667,4.776,10.667,10.667S443.224,128,437.333,128z" fill="#f63e02" data-original="#fafafa" class=""/>
	<path style="" d="M394.667,170.667c-5.891,0-10.667-4.776-10.667-10.667V74.667C384,68.776,388.776,64,394.667,64   c5.891,0,10.667,4.776,10.667,10.667V160C405.333,165.891,400.558,170.667,394.667,170.667z" fill="#f63e02" data-original="#fafafa" class=""/>
</g>
<g xmlns="http://www.w3.org/2000/svg">
</g>
<g xmlns="http://www.w3.org/2000/svg">
</g>
<g xmlns="http://www.w3.org/2000/svg">
</g>
<g xmlns="http://www.w3.org/2000/svg">
</g>
<g xmlns="http://www.w3.org/2000/svg">
</g>
<g xmlns="http://www.w3.org/2000/svg">
</g>
<g xmlns="http://www.w3.org/2000/svg">
</g>
<g xmlns="http://www.w3.org/2000/svg">
</g>
<g xmlns="http://www.w3.org/2000/svg">
</g>
<g xmlns="http://www.w3.org/2000/svg">
</g>
<g xmlns="http://www.w3.org/2000/svg">
</g>
<g xmlns="http://www.w3.org/2000/svg">
</g>
<g xmlns="http://www.w3.org/2000/svg">
</g>
<g xmlns="http://www.w3.org/2000/svg">
</g>
<g xmlns="http://www.w3.org/2000/svg">
</g>
</g></svg>
