<svg width="25" height="24" viewBox="0 0 25 24" fill="none" xmlns="http://www.w3.org/2000/svg">
<path d="M17.067 2H7.06696C4.30553 2 2.06696 4.23858 2.06696 7V17C2.06696 19.7614 4.30553 22 7.06696 22H17.067C19.8284 22 22.067 19.7614 22.067 17V7C22.067 4.23858 19.8284 2 17.067 2Z" stroke="#F63E02" stroke-width="2" stroke-linecap="round" stroke-linejoin="round"/>
<path d="M16.067 11.3701C16.1904 12.2023 16.0482 13.0523 15.6607 13.7991C15.2732 14.5459 14.6601 15.1515 13.9086 15.5297C13.1571 15.908 12.3054 16.0397 11.4748 15.906C10.6441 15.7723 9.87673 15.3801 9.28181 14.7852C8.68688 14.1903 8.2947 13.4229 8.16104 12.5923C8.02737 11.7616 8.15903 10.91 8.53729 10.1584C8.91556 9.40691 9.52115 8.7938 10.268 8.4063C11.0148 8.0188 11.8647 7.87665 12.697 8.00006C13.5459 8.12594 14.3318 8.52152 14.9387 9.12836C15.5455 9.73521 15.9411 10.5211 16.067 11.3701Z" stroke="#F63E02" stroke-width="2" stroke-linecap="round" stroke-linejoin="round"/>
<path d="M17.567 6.5H17.577" stroke="#F63E02" stroke-width="2" stroke-linecap="round" stroke-linejoin="round"/>
</svg>
