<svg width="25" height="24" viewBox="0 0 25 24" fill="none" xmlns="http://www.w3.org/2000/svg">
<path d="M16.067 8C17.6583 8 19.1844 8.63214 20.3096 9.75736C21.4348 10.8826 22.067 12.4087 22.067 14V21H18.067V14C18.067 13.4696 17.8562 12.9609 17.4812 12.5858C17.1061 12.2107 16.5974 12 16.067 12C15.5365 12 15.0278 12.2107 14.6527 12.5858C14.2777 12.9609 14.067 13.4696 14.067 14V21H10.067V14C10.067 12.4087 10.6991 10.8826 11.8243 9.75736C12.9495 8.63214 14.4757 8 16.067 8V8Z" stroke="#561F83" stroke-width="2" stroke-linecap="round" stroke-linejoin="round"/>
<path d="M6.06696 9H2.06696V21H6.06696V9Z" stroke="#561F83" stroke-width="2" stroke-linecap="round" stroke-linejoin="round"/>
<path d="M4.06696 6C5.17153 6 6.06696 5.10457 6.06696 4C6.06696 2.89543 5.17153 2 4.06696 2C2.96239 2 2.06696 2.89543 2.06696 4C2.06696 5.10457 2.96239 6 4.06696 6Z" stroke="#561F83" stroke-width="2" stroke-linecap="round" stroke-linejoin="round"/>
</svg>
