<svg width="25" height="24" viewBox="0 0 25 24" fill="none" xmlns="http://www.w3.org/2000/svg">
<g clip-path="url(#clip0)">
<path d="M23.067 3.00005C22.1093 3.67552 21.0491 4.19216 19.927 4.53005C19.3247 3.83756 18.5243 3.34674 17.634 3.12397C16.7437 2.90121 15.8065 2.95724 14.949 3.2845C14.0916 3.61176 13.3554 4.19445 12.8399 4.95376C12.3245 5.71308 12.0547 6.61238 12.067 7.53005V8.53005C10.3096 8.57561 8.56823 8.18586 6.99796 7.39549C5.4277 6.60513 4.07727 5.43868 3.06696 4.00005C3.06696 4.00005 -0.933044 13 8.06696 17C6.00748 18.398 3.55411 19.099 1.06696 19C10.067 24 21.067 19 21.067 7.50005C21.066 7.2215 21.0393 6.94364 20.987 6.67005C22.0076 5.66354 22.7278 4.39276 23.067 3.00005V3.00005Z" stroke="#561F83" stroke-width="2" stroke-linecap="round" stroke-linejoin="round"/>
</g>
<defs>
<clipPath id="clip0">
<rect width="24" height="24" fill="white" transform="translate(0.0669556)"/>
</clipPath>
</defs>
</svg>
